<svg xmlns:dc="http://purl.org/dc/elements/1.1/" 
    xmlns:cc="http://creativecommons.org/ns#" 
    xmlns:rdf="http://www.w3.org/1999/02/22-rdf-syntax-ns#" 
    xmlns:svg="http://www.w3.org/2000/svg" 
    xmlns="http://www.w3.org/2000/svg" id="svg8" version="1.1" viewBox="0 0 210 297" height="297mm" width="210mm">
    <!--
        from 
        https://www.youtube.com/watch?v=vJNVramny9k&t=536s
    -->
    <style type="text/css" media="screen">
        <![CDATA[  
            path#capital_h_1 {
                stroke-dasharray: 40;
                stroke-dashoffset: 40;
                animation: line_ani 2s ease forwards 1s,
                           fill 2s ease forwards 6.7s;
            }
            path#capital_h_2 {
                stroke-dasharray: 40;
                stroke-dashoffset: 40;
                animation: line_ani 2s ease forwards 1.3s,
                           fill 2s ease forwards 6.7s;
            }
            path#a{
                stroke-dasharray: 40;
                stroke-dashoffset: 40;
                animation: line_ani 2s ease forwards 1.6s,
                           fill 2s ease forwards 6.7s;
            }
            path#c{
                stroke-dasharray: 200;
                stroke-dashoffset: 200;
                animation: line_ani 2s ease forwards 1.9s,
                           fill 2s ease forwards 6.7s;
            }
            path#k{
                stroke-dasharray: 60;
                stroke-dashoffset: 60;
                animation: line_ani 2s ease forwards 2.2s,
                           fill 2s ease forwards 6.7s;
            }
            path#capital_y {
                stroke-dasharray: 42;
                stroke-dashoffset: 42;
                animation: line_ani 2s ease forwards 2.5s,
                           fill 2s ease forwards 6.7s;
            }
            path#o{
                stroke-dasharray: 32;
                stroke-dashoffset: 32;
                animation: line_ani 2s ease forwards 2.8s,
                           fill 2s ease forwards 6.7s;
            }
            path#u{
                stroke-dasharray: 50;
                stroke-dashoffset: 50;
                animation: line_ani 2s ease forwards 3.1s,
                fill 2s ease forwards 6.7s;
            }
            path#r{
                stroke-dasharray: 40;
                stroke-dashoffset: 40;
                animation: line_ani 2s ease forwards 3.4s,
                fill 2s ease forwards 6.7s;
            }
            path#capital_f_1 {
                stroke-dasharray: 34;
                stroke-dashoffset: 34;
                animation: line_ani 2s ease forwards 3.7s,
                fill 2s ease forwards 6.7s;
            }
            path#capital_f_2 {
                stroke-dasharray: 34;
                stroke-dashoffset: 34;
                animation: line_ani 2s ease forwards 4s,
                fill 2s ease forwards 6.7s;
            }
            path#u2{
                stroke-dasharray: 50;
                stroke-dashoffset: 50;
                animation: line_ani 2s ease forwards 4.3s,
                fill 2s ease forwards 6.7s;
            }
            path#t{
                stroke-dasharray: 34;
                stroke-dashoffset: 34;
                animation: line_ani 2s ease forwards 4.6s,
                fill 2s ease forwards 6.7s;
            }
            path#u3{
                stroke-dasharray: 50;
                stroke-dashoffset: 50;
                animation: line_ani 2s ease forwards 4.9s,
                fill 2s ease forwards 6.7s;
            }
            path#r2{
                stroke-dasharray: 40;
                stroke-dashoffset: 40;
                animation: line_ani 2s ease forwards 5.2s,
                fill 2s ease forwards 6.7s;
            }
            path#e{
                stroke-dasharray: 50;
                stroke-dashoffset: 50;
                animation: line_ani 2s ease forwards 5.5s,
                fill 2s ease forwards 6.7s;
            }
            path#flag_black {
               fill-opacity: 0;
               animation: flag_gani 2s ease forwards 5.8s;
            }
            path#flag_yellow {
                fill-opacity: 0;
                animation: flag_gani 2s ease forwards 6.1s;
             }
             path#flag_red {
                fill-opacity: 0;
                animation: flag_gani 2s ease forwards 6.4s;
             }

             @keyframes line_ani{
                 100%{
                    stroke-dashoffset: 0;
                 }
             }
             @keyframes flag_gani{
                100%{
                    fill-opacity: 1;
                }
            }
            @keyframes fill {
                0%{
                    fill: transparent;
                }
                100%{
                    fill:black;
                }
            }
    ]]>
    </style>
    <defs id="defs2" />
    <metadata id="metadata5">
        <rdf:RDF>
            <cc:Work rdf:about="">
                <dc:format>image/svg+xml</dc:format>
                <dc:type rdf:resource="http://purl.org/dc/dcmitype/StillImage" />
                <dc:title></dc:title>
            </cc:Work>
        </rdf:RDF>
    </metadata>
    <g style="display:inline" id="layer1">
        <flowRoot transform="matrix(0.26458333,0,0,0.26458333,5.1458184,-13.229842)" style="font-style:normal;font-variant:normal;font-weight:normal;font-stretch:normal;font-size:48px;line-height:1.25;font-family:Mesmerize;-inkscape-font-specification:Mesmerize;letter-spacing:0px;word-spacing:0px;fill:#000000;fill-opacity:1;stroke:none" id="flowRoot880" xml:space="preserve">
            <flowRegion style="font-style:normal;font-variant:normal;font-weight:normal;font-stretch:normal;font-size:48px;font-family:Mesmerize;-inkscape-font-specification:Mesmerize" id="flowRegion882">
                <rect style="font-style:normal;font-variant:normal;font-weight:normal;font-stretch:normal;font-size:48px;font-family:Mesmerize;-inkscape-font-specification:Mesmerize" y="489.65912" x="313.65237" height="52.022858" width="125.76399" id="rect884" />
            </flowRegion>
            <flowPara id="flowPara886">A</flowPara>
        </flowRoot>
        <flowRoot style="font-style:normal;font-weight:normal;font-size:40px;line-height:1.25;font-family:sans-serif;letter-spacing:0px;word-spacing:0px;fill:#000000;fill-opacity:1;stroke:none" id="flowRoot920" xml:space="preserve">
            <flowRegion id="flowRegion922">
                <rect y="462.89008" x="311.12698" height="45.961941" width="44.446712" id="rect924" />
            </flowRegion>
            <flowPara id="flowPara926"></flowPara>
        </flowRoot>
        <flowRoot transform="scale(0.26458333)" style="font-style:normal;font-variant:normal;font-weight:normal;font-stretch:normal;font-size:48px;line-height:1.25;font-family:Mesmerize;-inkscape-font-specification:Mesmerize;letter-spacing:0px;word-spacing:0px;fill:#000000;fill-opacity:1;stroke:none" id="flowRoot1073" xml:space="preserve">
            <flowRegion style="font-style:normal;font-variant:normal;font-weight:normal;font-stretch:normal;font-family:Mesmerize;-inkscape-font-specification:Mesmerize" id="flowRegion1075">
                <rect style="font-style:normal;font-variant:normal;font-weight:normal;font-stretch:normal;font-family:Mesmerize;-inkscape-font-specification:Mesmerize" y="1668.0021" x="1032.881" height="50.507626" width="40.911179" id="rect1077" />
            </flowRegion>
            <flowPara id="flowPara1079"></flowPara>
        </flowRoot>
        <flowRoot transform="matrix(0.26458333,0,0,0.26458333,-0.13363476,-9.8889723)" style="font-style:normal;font-weight:normal;font-size:48px;line-height:1.25;font-family:sans-serif;letter-spacing:0px;word-spacing:0px;fill:#000000;fill-opacity:1;stroke:none" id="flowRoot1081" xml:space="preserve">
            <flowRegion id="flowRegion1083">
                <rect y="1574.563" x="1026.8201" height="72.225906" width="56.063465" id="rect1085" />
            </flowRegion>
            <flowPara style="font-style:normal;font-variant:normal;font-weight:normal;font-stretch:normal;font-family:Mesmerize;-inkscape-font-specification:Mesmerize" id="flowPara1087">ACaA</flowPara>
        </flowRoot>
        <g transform="matrix(1.5855089,0,0,1.5855089,-363.48314,-630.38152)" id="text1115" style="font-style:normal;font-weight:normal;font-size:12.69999981px;line-height:1.25;font-family:sans-serif;letter-spacing:0px;word-spacing:0px;fill:none;fill-opacity:1;stroke:#000000;stroke-width:0.60000002;stroke-miterlimit:4;stroke-dasharray:none;stroke-opacity:1" aria-label="E">
            <path id="e" style="font-style:normal;font-variant:normal;font-weight:normal;font-stretch:normal;font-family:Mesmerize;-inkscape-font-specification:Mesmerize;fill:none;stroke:#000000;stroke-width:0.60000002;stroke-miterlimit:4;stroke-opacity:1" d="m 325.42176,472.56029 v 1.3208 h -3.85657 v 2.7813 h 3.80577 v 1.2573 h -3.80577 v 3.0353 h 3.88197 v 1.3208 h -5.22817 v -9.7155 z" />
        </g>
        <g transform="matrix(1.5855089,0,0,1.5855089,-363.63297,-630.66617)" id="text1115-9" style="font-style:normal;font-weight:normal;font-size:12.69999981px;line-height:1.25;font-family:sans-serif;letter-spacing:0px;word-spacing:0px;fill:none;fill-opacity:1;stroke:#000000;stroke-width:0.60000002;stroke-miterlimit:4;stroke-dasharray:none;stroke-opacity:1" aria-label="A">
            <!-- A -->
            <path id="a" style="font-style:normal;font-variant:normal;font-weight:normal;font-stretch:normal;font-family:Mesmerize;-inkscape-font-specification:Mesmerize;fill:none;stroke:#000000;stroke-width:0.60000002;stroke-miterlimit:4;stroke-opacity:1" d="m 278.62596,442.11151 4.318,9.8425 h -1.4478 l -0.88873,-1.80589 -4.2624,0.0236 -0.83057,1.78227 h -1.397 l 4.3307,-9.8425 z m -1.81636,6.91874 h 3.50954 l -1.80748,-4.16284 z" />
        </g>
        <g transform="matrix(1.5855089,0,0,1.5855089,-363.63297,-630.66617)" id="text1115-2" style="font-style:normal;font-weight:normal;font-size:12.69999981px;line-height:1.25;font-family:sans-serif;letter-spacing:0px;word-spacing:0px;fill:none;fill-opacity:1;stroke:#000000;stroke-width:0.60000002;stroke-miterlimit:4;stroke-dasharray:none;stroke-opacity:1" aria-label="C">
            <!-- c -->
            <path id="c" transform="scale(0.26458333)" d="m 1099.5156,1672.0801 c -2.528,0 -4.8638,0.4309 -7.0078,1.2949 -2.144,0.864 -4.0003,2.0973 -5.5683,3.6973 -1.536,1.6 -2.7357,3.5514 -3.5997,5.8554 -0.864,2.272 -1.2949,4.8485 -1.2949,7.7285 0,2.8801 0.4309,5.5032 1.2949,7.8711 0.8961,2.3361 2.1125,4.336 3.6485,6 1.536,1.6641 3.3606,2.9607 5.4726,3.8887 2.112,0.896 4.4161,1.3438 6.9121,1.3438 1.408,0 2.783,-0.1604 4.127,-0.4805 1.376,-0.288 2.6727,-0.7506 3.8887,-1.3906 1.216,-0.64 2.3185,-1.4404 3.3105,-2.4004 0.099,-0.095 0.1879,-0.2004 0.2832,-0.2988 v -7.629 c -0.6384,1.0616 -1.6335,2.4488 -2.3245,3.1398 -0.704,0.736 -2.4865,2.1478 -3.3825,2.6278 -0.896,0.48 -1.84,0.8477 -2.832,1.1035 -0.9921,0.2242 -2.0144,0.336 -3.0704,0.336 -1.6959,0 -3.2967,-0.3041 -4.8007,-0.9121 -1.472,-0.64 -2.7687,-1.5523 -3.8887,-2.7364 -1.088,-1.184 -1.9518,-2.6391 -2.5918,-4.3671 -0.6399,-1.728 -0.959,-3.7112 -0.959,-5.9512 0,-2.208 0.3041,-4.1615 0.9121,-5.8574 0.64,-1.728 1.5038,-3.1684 2.5918,-4.3204 1.12,-1.152 2.4316,-2.0306 3.9356,-2.6386 1.504,-0.6082 3.1364,-0.9121 4.8965,-0.9121 2.112,0 4,0.3992 5.664,1.1992 5.462,2.1194 4.3767,3.3398 5.8496,4.5957 v -6.9922 c -1.1785,-0.9309 -2.3984,-1.7009 -3.9785,-2.3555 -2.24,-0.96 -4.7363,-1.4394 -7.4883,-1.4394 z" style="font-style:normal;font-variant:normal;font-weight:normal;font-stretch:normal;font-family:Mesmerize;-inkscape-font-specification:Mesmerize;fill:none;fill-opacity:1;stroke:#000000;stroke-width:2.26771665;stroke-miterlimit:4;stroke-opacity:1" />
        </g>
        <g transform="matrix(1.5855089,0,0,1.5855089,-341.77406,-647.37123)" id="text1115-20" style="font-style:normal;font-weight:normal;font-size:12.69999981px;line-height:1.25;font-family:sans-serif;letter-spacing:0px;word-spacing:0px;fill:none;fill-opacity:1;stroke:#000000;stroke-width:0.60000002;stroke-miterlimit:4;stroke-dasharray:none;stroke-opacity:1" aria-label="K">
            <path id="k" d="m 285.08078,452.98563 v 9.71568 h 1.34618 v -3.32951 l 3.55171,3.19825 h 1.49863 l -4.67236,-4.70114 4.67236,-4.88328 h -1.49863 l -3.55171,3.50107 v -3.50107 z" style="font-style:normal;font-variant:normal;font-weight:normal;font-stretch:normal;font-family:Mesmerize;-inkscape-font-specification:Mesmerize;fill:none;stroke:#000000;stroke-width:0.60000002;stroke-miterlimit:4;stroke-opacity:1" />
        </g>
        <g id="text1115-90" style="font-style:normal;font-weight:normal;font-size:12.88216496px;line-height:1.25;font-family:sans-serif;letter-spacing:0px;word-spacing:0px;fill:none;fill-opacity:1;stroke:#000000;stroke-width:0.60000002;stroke-miterlimit:4;stroke-dasharray:none;stroke-opacity:1" transform="matrix(1.679903,0,0,1.4964189,-363.63297,-630.44144)" aria-label="o">
            <path id="o" style="font-style:normal;font-variant:normal;font-weight:normal;font-stretch:normal;font-family:Mesmerize;-inkscape-font-specification:Mesmerize;fill:none;stroke:#000000;stroke-width:0.60000002;stroke-miterlimit:4;stroke-opacity:1" d="m 262.3788,484.74447 q 1.09499,0 1.93233,0.42511 0.85022,0.42511 1.42992,1.13363 0.5797,0.70852 0.87598,1.62316 0.29629,0.91463 0.29629,1.88079 0,0.96616 -0.29629,1.8808 -0.29628,0.90175 -0.87598,1.61027 -0.5797,0.69564 -1.42992,1.13363 -0.85023,0.42511 -1.94521,0.42511 -1.10787,0 -1.95809,-0.42511 -0.83734,-0.43799 -1.41704,-1.14651 -0.56681,-0.70852 -0.8631,-1.62316 -0.28341,-0.91463 -0.28341,-1.86791 0,-0.96616 0.29629,-1.8808 0.29629,-0.91463 0.87599,-1.61027 0.57969,-0.70852 1.41704,-1.13363 0.85022,-0.42511 1.9452,-0.42511 z m 0,1.33975 q -0.73428,0 -1.32686,0.2834 -0.59258,0.28341 -1.00481,0.78582 -0.41223,0.5024 -0.63123,1.18516 -0.21899,0.66987 -0.21899,1.45568 0,0.78581 0.21899,1.46857 0.219,0.66987 0.63123,1.17227 0.41223,0.50241 1.00481,0.7987 0.59258,0.28341 1.33974,0.28341 0.73429,0 1.31399,-0.28341 0.59258,-0.28341 1.0048,-0.77293 0.41223,-0.50241 0.63123,-1.17228 0.23188,-0.68275 0.23188,-1.48145 0,-0.78581 -0.23188,-1.46856 -0.219,-0.68276 -0.63123,-1.18516 -0.41222,-0.50241 -1.0048,-0.78582 -0.59258,-0.2834 -1.32687,-0.2834 z" />
        </g>
        <g transform="matrix(1.5855089,0,0,1.5855089,-363.63297,-630.66617)" id="text1115-7" style="font-style:normal;font-weight:normal;font-size:12.69999981px;line-height:1.25;font-family:sans-serif;letter-spacing:0px;word-spacing:0px;fill:none;fill-opacity:1;stroke:#000000;stroke-width:0.60000002;stroke-miterlimit:4;stroke-dasharray:none;stroke-opacity:1" aria-label="U">
            <path id="u" style="font-style:normal;font-variant:normal;font-weight:normal;font-stretch:normal;font-family:Mesmerize;-inkscape-font-specification:Mesmerize;fill:none;stroke:#000000;stroke-width:0.60000002;stroke-miterlimit:4;stroke-opacity:1" d="m 288.62857,457.38094 v 5.9563 q 0,0.6096 0.1143,1.0922 0.1143,0.4699 0.381,0.8001 0.2667,0.3302 0.6858,0.508 0.4318,0.1651 1.0668,0.1651 1.1684,0 1.7018,-0.6223 0.5461,-0.635 0.5461,-1.9431 v -5.9563 h 1.3081 v 5.9436 q 0,1.9939 -0.9271,2.9464 -0.9271,0.9525 -2.6543,0.9525 -1.8288,0 -2.7051,-1.0033 -0.8636,-1.0033 -0.8636,-2.8829 v -5.9563 z" />
        </g>
        <g transform="matrix(1.5855089,0,0,1.5855089,-363.63297,-630.66617)" id="text1115-5" style="font-style:normal;font-weight:normal;font-size:12.69999981px;line-height:1.25;font-family:sans-serif;letter-spacing:0px;word-spacing:0px;fill:none;fill-opacity:1;stroke:#000000;stroke-width:0.60000002;stroke-miterlimit:4;stroke-dasharray:none;stroke-opacity:1" aria-label="R">
            <path id="r" style="font-style:normal;font-variant:normal;font-weight:normal;font-stretch:normal;font-family:Mesmerize;-inkscape-font-specification:Mesmerize;fill:none;stroke:#000000;stroke-width:0.60000002;stroke-miterlimit:4;stroke-opacity:1" d="m 302.21491,457.59352 c 0.45718,0.004 0.8509,0.0762 1.1811,0.2286 0.3302,0.1524 0.60113,0.3556 0.8128,0.6096 0.22013,0.254 0.381,0.55033 0.4826,0.889 0.11007,0.3302 0.1651,0.67733 0.1651,1.0414 0,0.55033 -0.127,1.06257 -0.381,1.5367 -0.12276,0.23284 -0.28046,0.43392 -0.47307,0.60325 -0.19262,0.16933 -0.31622,0.40142 -0.57869,0.50725 l 3.33965,4.27608 h -1.71121 l -2.96016,-4.13283 -1.36113,-0.0709 v 4.2037 h -1.3462 v -9.7155 z m -1.48401,4.48488 1.29351,0.0236 c 0.26243,0.005 0.48683,-0.0423 0.6731,-0.127 0.18627,-0.0931 0.33867,-0.21167 0.4572,-0.3556 0.127,-0.14393 0.22013,-0.31327 0.2794,-0.508 0.0593,-0.19473 0.0889,-0.39793 0.0889,-0.6096 0,-0.21167 -0.0296,-0.41063 -0.0889,-0.5969 -0.0593,-0.19473 -0.1524,-0.36407 -0.2794,-0.508 -0.11853,-0.1524 -0.27093,-0.27093 -0.4572,-0.3556 -0.18627,-0.0847 -0.41067,-0.1222 -0.6731,-0.127 l -1.29351,-0.0236 z" />
        </g>
        <g transform="matrix(1.5855089,0,0,1.5855089,-363.55805,-630.36655)" id="text1115-7-8" style="font-style:normal;font-weight:normal;font-size:12.69999981px;line-height:1.25;font-family:sans-serif;letter-spacing:0px;word-spacing:0px;fill:none;fill-opacity:1;stroke:#000000;stroke-width:0.60000002;stroke-miterlimit:4;stroke-dasharray:none;stroke-opacity:1" aria-label="U">
            <path id="u2" style="font-style:normal;font-variant:normal;font-weight:normal;font-stretch:normal;font-family:Mesmerize;-inkscape-font-specification:Mesmerize;fill:none;stroke:#000000;stroke-width:0.60000002;stroke-miterlimit:4;stroke-opacity:1" d="m 276.90655,472.3734 v 5.9563 q 0,0.6096 0.1143,1.0922 0.1143,0.4699 0.381,0.8001 0.2667,0.3302 0.6858,0.508 0.4318,0.1651 1.0668,0.1651 1.1684,0 1.7018,-0.6223 0.5461,-0.635 0.5461,-1.9431 v -5.9563 h 1.3081 v 5.9436 q 0,1.9939 -0.9271,2.9464 -0.9271,0.9525 -2.6543,0.9525 -1.8288,0 -2.7051,-1.0033 -0.8636,-1.0033 -0.8636,-2.8829 v -5.9563 z" />
        </g>
        <g transform="matrix(1.5855089,0,0,1.5855089,-363.68594,-630.77212)" id="text1115-1" style="font-style:normal;font-weight:normal;font-size:12.69999981px;line-height:1.25;font-family:sans-serif;letter-spacing:0px;word-spacing:0px;fill:none;fill-opacity:1;stroke:#000000;stroke-width:0.60000002;stroke-miterlimit:4;stroke-dasharray:none;stroke-opacity:1" aria-label="T">
            <path id="t" style="font-style:normal;font-variant:normal;font-weight:normal;font-stretch:normal;font-family:Mesmerize;-inkscape-font-specification:Mesmerize;fill:none;stroke:#000000;stroke-width:0.60000002;stroke-miterlimit:4;stroke-opacity:1" d="m 293.74664,472.66534 v 1.3208 h -2.8321 v 8.51282 h -1.3462 v -8.51282 h -2.8194 v -1.3208 z" />
        </g>
        <g transform="matrix(1.5855089,0,0,1.5855089,-363.63297,-630.06691)" id="text1115-7-8-3" style="font-style:normal;font-weight:normal;font-size:12.69999981px;line-height:1.25;font-family:sans-serif;letter-spacing:0px;word-spacing:0px;fill:none;fill-opacity:1;stroke:#000000;stroke-width:0.60000002;stroke-miterlimit:4;stroke-dasharray:none;stroke-opacity:1" aria-label="U">
            <path id="u3" style="font-style:normal;font-variant:normal;font-weight:normal;font-stretch:normal;font-family:Mesmerize;-inkscape-font-specification:Mesmerize;fill:none;stroke:#000000;stroke-width:0.60000002;stroke-miterlimit:4;stroke-opacity:1" d="m 299.26379,472.14662 v 5.9563 q 0,0.6096 0.1143,1.0922 0.1143,0.4699 0.381,0.8001 0.2667,0.3302 0.6858,0.508 0.4318,0.1651 1.0668,0.1651 1.1684,0 1.7018,-0.6223 0.5461,-0.635 0.5461,-1.9431 v -5.9563 h 1.3081 v 5.9436 q 0,1.9939 -0.9271,2.9464 -0.9271,0.9525 -2.6543,0.9525 -1.8288,0 -2.7051,-1.0033 -0.8636,-1.0033 -0.8636,-2.8829 v -5.9563 z" />
        </g>
        <g transform="matrix(1,0,0,-1,20.895921,873.43359)" id="text1115-20-9" style="font-style:normal;font-weight:normal;font-size:12.69999981px;line-height:1.25;font-family:sans-serif;letter-spacing:0px;word-spacing:0px;fill:#000000;fill-opacity:1;stroke:none;stroke-width:0.26458332" aria-label="K" />
        <g id="text1115-5-0" style="font-style:normal;font-weight:normal;font-size:12.69999981px;line-height:1.25;font-family:sans-serif;letter-spacing:0px;word-spacing:0px;fill:none;fill-opacity:1;stroke:#000000;stroke-width:0.60000002;stroke-miterlimit:4;stroke-dasharray:none;stroke-opacity:1" aria-label="R" transform="matrix(1.5855089,0,0,1.5855089,-346.97807,-606.64494)">
            <path id="r2" style="font-style:normal;font-variant:normal;font-weight:normal;font-stretch:normal;font-family:Mesmerize;-inkscape-font-specification:Mesmerize;fill:none;stroke:#000000;stroke-width:0.60000002;stroke-miterlimit:4;stroke-opacity:1" d="m 302.21491,457.59352 c 0.45718,0.004 0.8509,0.0762 1.1811,0.2286 0.3302,0.1524 0.60113,0.3556 0.8128,0.6096 0.22013,0.254 0.381,0.55033 0.4826,0.889 0.11007,0.3302 0.1651,0.67733 0.1651,1.0414 0,0.55033 -0.127,1.06257 -0.381,1.5367 -0.12276,0.23284 -0.28046,0.43392 -0.47307,0.60325 -0.19262,0.16933 -0.31622,0.40142 -0.57869,0.50725 l 3.33965,4.27608 h -1.71121 l -2.96016,-4.13283 -1.36113,-0.0709 v 4.2037 h -1.3462 v -9.7155 z m -1.48401,4.48488 1.29351,0.0236 c 0.26243,0.005 0.48683,-0.0423 0.6731,-0.127 0.18627,-0.0931 0.33867,-0.21167 0.4572,-0.3556 0.127,-0.14393 0.22013,-0.31327 0.2794,-0.508 0.0593,-0.19473 0.0889,-0.39793 0.0889,-0.6096 0,-0.21167 -0.0296,-0.41063 -0.0889,-0.5969 -0.0593,-0.19473 -0.1524,-0.36407 -0.2794,-0.508 -0.11853,-0.1524 -0.27093,-0.27093 -0.4572,-0.3556 -0.18627,-0.0847 -0.41067,-0.1222 -0.6731,-0.127 l -1.29351,-0.0236 z" />
        </g>
        <path id="capital_h_2" d="M 61.559463,70.8796 H 65.08026 V 86.161354 H 61.559463 Z" style="fill:none;fill-opacity:1;stroke:#000000;stroke-width:0.95130539;stroke-miterlimit:4;stroke-opacity:1" />
        <path id="capital_h_1" d="m 51.73113,70.8796 h 3.520796 V 86.161354 H 51.73113 Z" style="fill:none;fill-opacity:1;stroke:#000000;stroke-width:0.95130539;stroke-miterlimit:4;stroke-opacity:1" />
        <path id="capital_y" d="m 53.462586,94.828808 5.319144,6.367892 v 8.53991 h 3.745163 v -8.53991 l -4.793914,-6.21795 z" style="fill:none;fill-opacity:1;stroke:#000000;stroke-width:0.95130539;stroke-miterlimit:4;stroke-opacity:1" />
        <path id="capital_f_1" d="m 66.643779,118.73465 v 3.52079 H 54.196818 v -3.52079 z" style="fill:none;fill-opacity:1;stroke:#000000;stroke-width:0.95130539;stroke-miterlimit:4;stroke-opacity:1" />
        <path id="capital_f_2" d="m 60.708899,125.51281 v 3.52079 h -6.423562 v -3.52079 z" style="fill:none;fill-opacity:1;stroke:#000000;stroke-width:0.95130539;stroke-miterlimit:4;stroke-opacity:1" />
        <path id="flag_black" d="m 125.73285,93.113001 9.28631,-0.07483 0.075,18.621869 -9.28633,0.075 z" style="fill:#000000;stroke-width:0.41949922" />
        <path id="flag_yellow" d="m 135.01916,93.038165 9.28633,-0.07483 0.075,18.621855 -9.28633,0.075 z" style="fill:#ffff00;stroke-width:0.41949922" />
        <path id="flag_red" d="m 144.30549,92.963329 9.28632,-0.07483 0.075,18.621861 -9.28632,0.075 z" style="fill:#ff0000;" />
    </g>
</svg>