<!DOCTYPE svg PUBLIC "-//W3C//DTD SVG 20010904//EN" "http://www.w3.org/TR/2001/REC-SVG-20010904/DTD/svg10.dtd">
<svg version="1.0" xmlns="http://www.w3.org/2000/svg" width="424px" height="600px" viewBox="0 0 4240 6000" preserveAspectRatio="xMidYMid meet">
<g id="layer101" fill="#A63B5B" stroke="none">
 <path d="M1682 5609 c2 -26 13 -40 48 -66 86 -62 103 -77 121 -107 30 -49 24 -95 -20 -162 -64 -99 -117 -152 -145 -147 -29 6 -93 -48 -141 -120 -31 -46 -198 -247 -333 -401 -34 -39 -75 -96 -90 -126 -39 -78 -36 -198 7 -365 43 -166 44 -161 -28 -168 -74 -6 -128 -31 -147 -68 -8 -16 -21 -62 -29 -104 -23 -122 -54 -174 -203 -338 -96 -106 -117 -166 -109 -316 14 -255 81 -340 320 -400 181 -47 197 -59 257 -196 27 -60 52 -102 77 -125 26 -24 37 -42 35 -57 l-3 -21 -72 24 c-40 14 -110 28 -157 32 -83 7 -85 8 -84 32 1 14 5 35 9 47 11 36 -20 41 -54 9 -24 -23 -36 -26 -92 -26 -66 0 -89 -10 -89 -41 0 -28 -41 -71 -62 -66 -12 3 -26 -2 -36 -13 -10 -13 -24 -17 -38 -14 -28 7 -102 -13 -135 -37 -15 -10 -41 -19 -58 -19 -44 0 -97 -24 -111 -51 -9 -15 -10 -47 -6 -98 3 -42 10 -140 15 -218 12 -198 36 -235 166 -254 119 -17 189 -57 333 -192 41 -39 97 -80 130 -95 52 -25 67 -27 172 -26 139 1 258 29 302 71 24 23 31 25 50 15 25 -12 87 -22 131 -22 15 0 27 -3 27 -7 0 -5 -98 -168 -219 -363 -120 -195 -216 -359 -214 -364 3 -4 13 7 21 25 16 33 16 33 23 8 6 -19 8 -15 10 21 l2 45 7 -45 7 -45 3 55 2 55 10 -48 c9 -49 -6 -112 -24 -101 -4 3 -8 -4 -8 -16 0 -12 -4 -19 -9 -15 -5 3 -11 -5 -14 -17 l-4 -23 -10 25 c-9 22 -11 18 -17 -34 -6 -41 -11 -55 -17 -45 -7 11 -9 9 -9 -8 0 -36 -20 -27 -21 10 -2 38 -5 23 -14 -57 -8 -72 -23 -62 -27 19 l-3 60 -27 -45 -28 -45 37 -33 c20 -17 37 -31 39 -30 1 2 108 176 239 388 209 340 244 392 303 446 37 34 68 61 70 59 3 -3 -22 -121 -34 -164 -5 -17 -4 -22 4 -17 25 15 23 -25 -2 -70 -14 -26 -26 -52 -26 -59 0 -6 -13 -36 -30 -66 -32 -58 -38 -78 -17 -61 9 8 20 7 39 -2 26 -14 26 -13 43 40 9 30 22 54 28 54 7 1 -2 7 -19 14 l-32 14 27 56 c23 49 51 74 51 45 0 -5 4 -8 9 -5 5 3 34 1 65 -5 40 -8 71 -9 108 -1 39 7 55 7 60 -1 5 -8 8 -6 8 5 0 37 20 25 44 -26 27 -58 31 -72 19 -79 -5 -2 -3 -3 3 -1 6 1 18 -3 25 -9 11 -10 11 -9 1 4 -6 9 -9 18 -6 21 3 3 -6 29 -21 58 -20 40 -24 55 -14 66 6 7 15 11 20 8 12 -7 12 -6 -5 63 -8 32 -18 74 -22 93 l-7 35 57 -53 c31 -30 62 -52 68 -50 26 9 17 27 -25 51 -24 14 -49 33 -56 41 -11 13 -7 15 38 9 35 -4 51 -2 51 6 0 6 -17 11 -42 11 -24 0 -53 3 -65 6 l-21 6 24 35 c13 20 24 41 24 47 0 6 5 4 11 -4 8 -11 9 -6 4 20 -6 37 -1 34 32 -17 10 -15 10 -11 2 17 -14 54 -11 56 26 14 36 -39 36 -39 20 -7 -8 18 -15 40 -15 50 1 17 1 17 11 0 5 -9 29 -27 52 -38 l42 -22 -38 38 c-43 42 -43 54 2 31 46 -24 73 -20 33 5 -17 12 -32 22 -32 24 0 1 21 1 48 -2 l47 -4 -40 20 -40 20 48 -5 c54 -7 65 9 15 21 l-33 7 35 11 35 11 -37 4 c-47 4 -48 13 -5 31 l32 14 -35 7 c-19 4 -30 8 -23 9 7 0 17 10 23 22 10 18 10 19 -8 10 -23 -12 -33 -5 -25 17 5 14 3 14 -15 -2 -22 -19 -22 -19 -23 5 0 22 -1 23 -9 4 -5 -11 -9 -14 -9 -6 -1 10 -5 11 -14 3 -8 -7 -17 -7 -30 2 -22 17 -22 26 1 26 13 1 12 4 -7 14 l-24 13 24 6 c13 3 33 13 44 21 18 13 15 14 -30 9 -42 -3 -47 -2 -30 8 11 6 34 24 50 40 l31 29 53 -20 c56 -22 134 -28 189 -16 21 5 32 4 32 -3 0 -6 9 -11 19 -11 11 0 35 -19 54 -43 60 -74 77 -118 87 -235 14 -154 18 -169 48 -193 25 -19 34 -21 117 -15 50 4 149 10 221 15 186 10 225 39 244 173 14 98 65 188 174 307 105 114 133 167 143 275 5 59 -13 192 -38 279 -24 87 -138 164 -290 198 -53 12 -119 34 -146 48 -45 24 -52 34 -104 139 -30 62 -65 122 -76 133 l-20 21 23 76 c12 42 25 89 28 103 5 21 10 25 29 22 30 -6 88 48 86 80 l-2 22 -4 -22 c-6 -33 -62 -77 -79 -63 -9 9 -10 18 -3 38 11 29 4 72 -19 117 -14 28 -14 29 1 17 9 -8 22 -29 29 -48 17 -47 31 -42 24 9 l-5 42 14 -40 15 -40 -4 50 -5 50 14 -40 c13 -40 13 -40 16 -10 2 24 3 22 9 -15 l7 -45 1 40 c1 22 -2 57 -7 77 -8 33 -6 39 14 52 19 13 23 26 29 110 6 78 4 102 -9 130 -15 32 -15 36 1 61 17 26 20 27 77 20 76 -8 103 -21 117 -55 20 -48 52 -70 120 -81 44 -7 85 -7 131 1 37 5 70 10 74 10 3 0 26 19 52 43 l46 42 96 0 c107 0 133 10 157 57 20 38 29 176 17 233 -9 40 -9 40 -62 45 -55 6 -72 19 -128 95 l-21 29 -11 -41 c-14 -51 -52 -83 -97 -83 -19 0 -34 -4 -34 -9 0 -5 23 -28 51 -51 36 -31 49 -49 47 -64 -3 -19 -11 -21 -103 -27 -101 -6 -135 -14 -135 -30 0 -22 -49 -6 -80 26 -38 39 -53 41 -124 20 -58 -18 -76 -19 -76 -4 0 6 122 208 271 449 l270 439 -33 30 c-18 17 -35 31 -38 31 -3 0 -29 -38 -58 -85 -41 -67 -50 -90 -43 -103 9 -15 10 -14 11 5 0 30 10 54 20 48 5 -3 11 9 15 26 5 23 9 28 16 18 6 -10 9 -6 9 14 0 16 4 26 10 22 6 -3 10 3 10 14 0 12 5 21 10 21 6 0 10 -27 9 -62 -1 -47 -3 -57 -9 -38 -7 22 -8 20 -10 -15 -1 -32 -3 -36 -10 -20 -7 17 -9 14 -10 -15 -2 -32 -3 -33 -10 -10 -7 22 -8 21 -10 -15 l-3 -40 -7 40 c-7 38 -7 38 -10 -20 -2 -50 -4 -55 -10 -30 -7 28 -8 26 -9 -15 -1 -33 -4 -41 -11 -30 -8 12 -10 8 -11 -15 l-1 -30 -8 30 c-7 28 -8 27 -10 -15 -1 -35 -3 -41 -10 -25 -7 16 -9 12 -11 -20 l-2 -40 -10 53 c-8 45 -7 58 8 87 11 18 22 32 26 29 7 -4 23 46 16 52 -2 3 -20 -22 -40 -55 -30 -52 -34 -64 -27 -95 4 -20 4 -38 0 -41 -5 -3 -10 11 -12 31 -3 34 -19 12 -243 -354 l-240 -391 -43 -7 c-53 -8 -95 -41 -115 -93 -31 -75 -40 -62 -32 45 7 97 6 100 -21 142 -22 33 -46 52 -104 81 -42 21 -96 41 -120 44 -25 4 -85 22 -134 42 -49 19 -99 35 -110 35 -12 1 -37 7 -57 14 -29 10 -59 10 -145 2 -60 -6 -114 -14 -120 -18 -15 -10 -86 44 -117 89 -51 75 -59 130 -32 235 27 102 7 119 -81 69 -74 -43 -140 -120 -148 -173 -9 -68 15 -201 63 -340 16 -45 17 -58 7 -58 -16 0 -33 39 -70 162 -23 75 -32 92 -71 126 -25 22 -45 47 -45 56 0 25 24 68 55 96 15 14 36 42 47 63 10 21 43 64 72 96 52 56 60 73 86 174 9 31 28 65 56 96 55 61 66 89 58 156 -6 47 -3 60 20 99 15 25 50 71 80 103 83 90 103 144 72 189 -8 11 -31 77 -51 145 -68 232 -88 250 -283 257 l-123 4 3 -33z m265 -4 c32 -13 47 -27 63 -59 27 -56 26 -77 -2 -35 -14 21 -46 45 -81 63 -50 25 -70 29 -147 30 -84 1 -107 7 -77 20 25 12 202 -2 244 -19z m-24 -162 c-5 -15 -3 -16 8 -5 22 21 33 13 13 -9 -19 -22 -19 -22 6 -15 l25 7 -25 -20 -25 -20 25 5 c25 5 25 5 5 -11 -20 -17 -19 -17 8 -11 19 5 26 3 22 -4 -3 -5 -16 -10 -28 -10 -21 -1 -21 -1 3 -15 25 -14 25 -14 2 -15 -21 0 -21 -2 10 -31 27 -25 28 -29 8 -17 -54 31 -61 30 -40 -5 11 -18 20 -39 20 -47 0 -8 -9 0 -20 18 -24 39 -32 41 -24 5 13 -61 13 -67 -1 -35 -20 42 -27 41 -20 -5 l6 -38 -25 49 -24 48 20 40 c16 29 19 50 15 83 -6 37 -3 45 16 58 28 20 27 20 20 0z m65 -357 c-51 -57 -95 -103 -97 -100 -7 7 53 88 109 146 95 99 86 64 -12 -46z m-158 27 l55 -56 -45 34 -45 34 31 -40 c25 -32 29 -42 19 -52 -10 -9 -23 -1 -60 37 -48 48 -48 49 -31 74 9 14 18 26 19 26 2 0 27 -26 57 -57z m-91 -97 c22 -25 65 -46 96 -46 26 0 90 -28 83 -36 -3 -2 -38 3 -79 13 -91 20 -139 60 -138 115 l1 33 10 -30 c6 -16 18 -38 27 -49z m58 5 c34 -28 36 -31 15 -31 -30 0 -82 52 -82 81 l0 23 15 -21 c8 -12 32 -36 52 -52z m-41 -177 c40 -63 74 -160 73 -211 0 -37 -1 -36 -23 27 -34 96 -90 202 -139 262 -65 80 -66 89 -2 28 31 -30 72 -78 91 -106z m178 66 c19 -19 -4 -23 -61 -10 -90 19 -99 32 -19 26 38 -3 74 -10 80 -16z m-286 -134 c55 -28 111 -86 142 -147 28 -53 20 -60 -12 -12 -31 46 -100 116 -152 155 -48 34 -41 36 22 4z m2142 -70 c-7 -7 -10 4 -9 30 1 39 1 39 10 9 5 -18 5 -33 -1 -39z m-2349 -15 c95 -32 175 -79 239 -137 79 -73 101 -113 29 -53 -81 69 -139 106 -252 160 -105 50 -112 63 -16 30z m-131 -36 c0 -3 -2 -5 -5 -5 -3 0 -5 2 -5 5 0 3 2 5 5 5 3 0 5 -2 5 -5z m186 -40 c59 -22 119 -55 101 -55 -4 0 -62 18 -128 40 -67 22 -127 40 -135 40 -8 0 -14 4 -14 8 0 14 104 -6 176 -33z m85 -124 c47 -49 70 -99 68 -151 0 -22 -2 -20 -14 11 -22 62 -45 100 -87 145 -56 61 -26 56 33 -5z m349 -96 c0 -8 -19 -25 -42 -39 -24 -14 -63 -45 -87 -70 l-44 -45 7 -79 c7 -94 39 -223 72 -298 29 -66 29 -64 4 -64 -15 0 -25 18 -49 93 -35 109 -61 240 -61 306 0 72 55 137 165 195 37 19 35 19 35 1z m-405 -287 c-64 -51 -145 -138 -166 -180 -22 -43 -33 -51 -19 -13 35 92 103 174 170 207 53 27 59 21 15 -14z m3 -52 c-29 -36 -68 -93 -86 -128 -38 -74 -35 -34 4 48 21 44 111 144 129 144 3 0 -18 -29 -47 -64z m485 -133 c-4 -45 -9 -69 -14 -61 -5 7 -9 23 -9 36 0 12 -4 22 -8 22 -5 0 -7 -15 -5 -32 3 -25 2 -30 -6 -18 -6 8 -11 31 -11 50 0 26 -3 31 -10 20 -5 -8 -10 -26 -11 -40 l-1 -25 -8 25 c-4 14 -5 43 -2 65 7 54 -8 38 -24 -27 l-14 -53 4 70 c1 40 10 84 20 103 l16 32 44 -46 44 -46 -5 -75z m1979 57 c50 0 58 -9 56 -59 -1 -36 -2 -39 -5 -14 -5 35 -19 47 -72 57 -35 6 -61 22 -61 37 0 4 12 1 28 -7 15 -7 39 -14 54 -14z m-1857 -30 c20 -38 19 -113 -1 -151 -8 -17 -18 -29 -21 -26 -2 3 0 14 6 25 18 34 12 39 -7 7 -11 -16 -26 -36 -35 -44 -10 -7 -17 -20 -17 -28 0 -8 -4 -11 -10 -8 -19 12 -10 42 23 72 42 38 64 108 49 152 -14 39 -7 40 13 1z m1649 6 c7 3 21 -4 31 -16 10 -11 15 -20 10 -20 -4 0 -2 -6 4 -14 7 -8 16 -27 21 -43 6 -21 8 -23 9 -8 1 11 -6 31 -15 43 -8 12 -10 22 -5 22 6 0 18 -11 26 -24 13 -19 14 -29 5 -46 -6 -11 -15 -18 -20 -15 -5 3 -11 1 -15 -5 -3 -5 -11 -10 -17 -10 -6 0 -3 9 7 20 17 18 16 21 -14 58 -17 22 -28 42 -25 45 3 3 -2 4 -12 4 -9 -1 -19 5 -22 13 -3 12 -2 12 8 3 7 -6 18 -9 24 -7z m-1684 -60 c0 -23 -6 -50 -12 -59 -11 -15 -12 -6 -10 48 4 71 22 80 22 11z m1914 38 c27 -26 6 -38 -23 -12 -14 13 -28 24 -30 26 -2 1 5 2 17 2 11 0 28 -7 36 -16z m-2884 -13 c0 -5 -10 -11 -23 -15 -40 -10 -107 -65 -139 -114 l-30 -47 6 49 c10 84 37 108 136 126 25 4 46 8 48 9 1 0 2 -3 2 -8z m428 -78 c-41 -41 -50 -55 -40 -65 9 -9 12 -8 12 4 0 9 5 20 10 23 13 8 40 -12 40 -29 0 -11 -78 -71 -84 -65 -2 2 -13 26 -25 54 l-22 50 28 20 c15 11 46 36 68 57 36 34 41 36 53 21 10 -15 5 -25 -40 -70z m1904 5 c19 -16 48 -59 48 -73 0 -5 -14 7 -31 28 -25 30 -38 37 -67 38 -33 1 -34 2 -12 9 36 12 44 11 62 -2z m533 -94 c-15 -30 -30 -54 -35 -54 -5 0 4 28 20 63 17 34 31 69 31 77 1 8 4 5 6 -8 3 -13 -7 -47 -22 -78z m-2044 70 c52 -16 105 -44 82 -44 -11 0 -145 49 -152 56 -8 8 16 4 70 -12z m1416 9 c-4 -3 -10 -3 -14 0 -3 4 0 7 7 7 7 0 10 -3 7 -7z m358 -13 c-3 -5 -24 -10 -45 -10 -51 0 -70 -8 -70 -30 0 -11 -5 -22 -11 -25 -7 -5 -9 5 -7 26 3 34 4 34 63 40 33 3 64 6 68 7 5 1 5 -2 2 -8z m-264 -21 l24 -20 -23 11 c-13 6 -51 15 -85 19 l-62 8 61 2 c49 1 67 -3 85 -20z m590 -12 c-9 -38 -29 -79 -45 -89 -21 -14 -29 -8 -13 10 9 10 26 39 37 65 25 55 31 60 21 14z m-2618 -50 l16 -48 -44 -21 c-49 -24 -50 -24 -59 13 -4 20 -1 29 11 34 10 3 19 1 21 -4 6 -19 22 -12 22 9 0 25 -9 25 -88 0 -35 -11 -88 -20 -118 -20 -58 0 -63 -4 -37 -32 20 -22 31 -23 29 -2 -2 29 19 25 38 -7 20 -35 21 -34 -16 -43 -24 -5 -35 1 -78 42 -27 27 -50 54 -50 60 0 7 16 12 39 12 55 0 176 25 236 48 28 10 53 16 56 13 4 -3 13 -28 22 -54z m534 16 c44 -19 63 -33 68 -50 7 -31 39 -46 110 -53 57 -6 59 -7 32 -18 -16 -7 -72 -12 -125 -12 -70 0 -104 -4 -119 -15 -19 -14 -22 -12 -48 26 -14 23 -32 60 -40 82 -7 23 -16 51 -20 61 -8 18 -5 19 36 12 24 -3 72 -19 106 -33z m1611 10 c-4 -32 -20 -39 -42 -18 -27 28 -22 34 37 44 5 0 7 -11 5 -26z m-139 -49 c3 -18 2 -18 -16 -1 -11 9 -33 17 -49 18 -29 1 -29 1 -4 8 33 10 64 -2 69 -25z m-1736 -36 c29 -30 55 -71 81 -133 48 -114 88 -176 139 -220 58 -50 66 -43 10 8 -42 39 -99 115 -91 122 2 2 23 -22 48 -53 25 -31 74 -75 109 -99 63 -42 69 -58 12 -28 -16 8 -31 12 -34 8 -10 -10 -92 44 -129 85 -19 21 -43 61 -53 88 -34 95 -84 190 -121 227 -21 20 -32 37 -25 37 6 0 31 -19 54 -42z m1715 12 c2 -22 1 -23 -9 -7 -6 10 -20 22 -32 27 -19 9 -19 9 8 7 24 -2 31 -7 33 -27z m392 26 c0 -3 -13 -11 -30 -20 -32 -15 -42 -4 -12 13 17 11 42 14 42 7z m-2149 -61 c0 14 6 8 19 -20 l19 -40 -45 -7 c-24 -3 -64 -18 -89 -31 l-44 -25 -36 39 c-43 48 -46 64 -5 24 34 -33 36 -31 15 21 l-16 39 21 -25 22 -25 -7 28 c-4 19 -2 26 5 22 5 -3 10 -12 10 -20 0 -8 5 -17 11 -20 7 -5 8 6 5 32 l-6 38 15 -30 16 -30 -4 28 c-2 15 -3 27 -1 27 2 0 11 -12 19 -27 l16 -28 -5 33 c-7 39 -1 41 19 5 l15 -28 -5 40 -5 40 20 -40 c14 -28 20 -34 21 -20z m-726 -61 c-5 -30 -30 -62 -40 -52 -2 2 4 28 15 56 11 29 21 65 22 80 1 18 3 14 5 -13 3 -21 2 -53 -2 -71z m2453 97 c8 -4 12 -18 10 -30 -3 -19 -4 -18 -20 9 -17 30 -14 37 10 21z m297 -3 c-16 -4 -61 -11 -100 -15 l-70 -7 65 -8 c36 -3 81 -5 100 -2 l35 4 -36 -14 c-19 -7 -60 -17 -90 -21 -51 -8 -52 -9 -24 -16 17 -5 53 -5 84 1 64 12 79 6 24 -10 -64 -18 -166 -24 -206 -11 -63 21 -73 72 -14 66 13 -1 15 0 5 2 -10 2 -18 11 -18 20 0 10 6 13 16 9 8 -3 13 -2 11 2 -3 4 52 7 121 8 84 0 117 -2 97 -8z m155 -8 c11 -7 6 -10 -20 -10 -20 0 -41 -5 -48 -12 -7 -7 -12 -8 -12 -2 0 29 49 44 80 24z m-827 -55 c-7 -55 7 -75 52 -75 25 0 40 8 58 30 14 17 29 30 32 30 4 0 5 -40 3 -90 -2 -71 -7 -93 -22 -107 -18 -17 -18 -17 -11 22 6 37 5 39 -9 20 -11 -14 -15 -16 -16 -6 0 11 -4 10 -14 -4 -13 -18 -14 -18 -37 6 -13 14 -36 45 -51 70 -15 24 -33 51 -40 61 -10 13 -7 23 16 52 36 48 47 46 39 -9z m717 40 c0 -3 -2 -5 -5 -5 -3 0 -5 2 -5 5 0 3 2 5 5 5 3 0 5 -2 5 -5z m-1468 -72 c17 -27 57 -72 87 -102 l56 -55 -50 28 c-27 16 -63 40 -78 55 -19 17 -26 20 -22 9 7 -19 76 -77 113 -97 13 -7 21 -15 19 -18 -3 -2 -19 3 -35 11 -17 9 -37 13 -45 11 -20 -8 -106 54 -144 103 -18 24 -33 47 -33 51 0 6 73 45 92 49 4 1 22 -19 40 -45z m124 -40 c64 -29 169 -52 249 -54 54 -2 56 -2 20 -8 -22 -3 -79 -3 -128 0 -103 8 -201 49 -242 103 -36 47 -31 53 12 16 20 -18 61 -44 89 -57z m-1286 56 c0 -24 -63 -89 -86 -89 -8 0 -14 -5 -14 -11 0 -5 5 -7 11 -3 7 4 20 -4 30 -17 10 -13 19 -18 19 -11 0 10 4 10 20 0 12 -8 18 -19 14 -30 -6 -20 11 -25 22 -6 4 6 -6 22 -25 37 -17 14 -31 30 -31 35 0 5 6 3 14 -3 8 -7 27 -16 42 -20 18 -5 28 -15 31 -31 5 -34 7 -34 52 -4 23 15 44 24 48 20 9 -8 -35 -54 -59 -62 -15 -4 -18 -12 -13 -31 17 -70 18 -83 2 -83 -10 0 -19 19 -28 60 -9 41 -16 56 -24 50 -15 -12 -52 -2 -59 17 -5 12 -8 12 -20 1 -41 -39 -69 -59 -80 -55 -7 3 -26 37 -43 76 l-32 71 30 0 c42 0 103 34 136 75 32 40 43 44 43 14z m220 6 c0 17 2 17 10 5 9 -13 10 -13 10 0 0 13 1 13 10 0 8 -13 10 -13 10 -1 0 11 4 9 15 -5 11 -15 15 -16 15 -4 1 10 4 9 10 -5 13 -30 12 -35 -7 -35 -10 0 -38 -10 -62 -21 l-45 -20 -25 25 c-21 22 -23 28 -12 38 11 11 12 10 6 -1 -6 -10 -4 -12 4 -7 7 5 10 15 6 24 -4 12 -1 11 16 -4 l22 -19 -8 25 c-7 24 -7 24 9 5 l15 -20 1 20z m1648 -73 c20 -36 32 -76 52 -170 6 -24 12 -48 15 -53 4 -5 2 -9 -4 -9 -10 0 -31 65 -51 155 -6 28 -20 62 -30 77 -22 30 -24 38 -12 38 5 0 18 -17 30 -38z m-1745 14 c28 -21 21 -40 -8 -19 -24 18 -32 33 -17 33 4 0 15 -7 25 -14z m487 -16 c2 25 2 24 15 -5 11 -24 14 -26 15 -10 1 18 2 17 14 -5 7 -14 17 -35 20 -47 6 -19 4 -23 -14 -23 -36 0 -91 -29 -125 -66 -32 -35 -33 -35 -74 -23 -43 13 -48 30 -6 21 30 -5 34 14 4 23 -11 4 -19 9 -16 11 2 3 16 0 31 -5 33 -13 33 -4 -1 31 -15 15 -22 28 -16 28 5 0 18 -9 28 -20 27 -29 38 -24 20 10 -21 40 -18 50 5 21 22 -25 25 -17 10 23 -13 34 3 34 19 0 15 -35 25 -25 11 11 -15 39 -5 43 15 6 21 -41 27 -39 20 7 -6 37 -6 37 9 12 l15 -25 1 25z m292 -81 c25 -31 68 -70 94 -87 59 -40 35 -43 -27 -4 -52 34 -101 87 -129 142 -24 47 -25 64 -2 30 9 -13 38 -50 64 -81z m943 78 c8 -13 17 -39 20 -58 l5 -34 -12 32 c-7 17 -17 35 -21 40 -5 4 -3 -5 2 -20 16 -42 12 -56 -6 -22 -8 17 -23 38 -31 48 -14 16 -14 19 -2 27 22 14 28 12 45 -13z m-1822 6 c-7 -2 -13 -11 -13 -19 0 -16 -16 -19 -25 -5 -6 10 22 31 40 30 6 0 4 -3 -2 -6z m347 -33 c0 9 6 5 15 -10 l14 -25 2 25 1 25 8 -25 c15 -48 12 -57 -25 -63 -19 -3 -49 -16 -66 -28 l-32 -22 -18 24 c-10 14 -16 33 -13 44 4 15 3 16 -4 6 -5 -7 -12 -9 -15 -5 -3 5 1 15 9 21 10 10 15 10 23 -5 14 -23 14 -7 0 21 -7 15 -2 13 15 -8 l26 -30 -9 33 c-12 39 -7 41 14 5 l16 -28 -6 35 -6 35 16 -25 15 -25 -5 30 -6 30 15 -25 c10 -16 16 -19 16 -10z m1391 -72 c11 -35 10 -38 -25 -74 -52 -53 -117 -153 -166 -254 -22 -47 -46 -85 -53 -85 -6 0 -18 -8 -25 -18 -12 -15 -9 -23 18 -57 17 -22 82 -87 143 -146 62 -59 102 -101 89 -95 -29 15 -124 91 -186 150 l-49 46 30 -40 c37 -48 201 -208 261 -254 52 -41 49 -52 -6 -18 -112 71 -317 283 -325 336 -2 15 -5 6 -6 -20 -1 -32 -7 -51 -22 -65 -11 -10 -43 -49 -70 -86 l-50 -67 -33 37 c-49 55 -58 76 -45 108 5 16 7 40 3 54 -5 14 -8 57 -8 97 -1 39 -5 75 -9 80 -5 4 -36 7 -70 6 l-62 -2 34 15 c24 10 43 12 67 5 37 -10 59 -6 186 33 98 30 133 60 163 140 16 40 25 50 67 68 66 28 118 89 118 138 0 42 14 64 18 28 1 -12 7 -39 13 -60z m-2027 11 c-11 -28 -17 -77 -17 -132 -1 -87 -2 -88 -15 -50 -17 49 -11 114 18 181 27 63 37 64 14 1z m41 19 c-24 -77 -35 -127 -35 -157 0 -19 -3 -31 -7 -28 -19 20 15 207 38 207 7 0 9 -9 4 -22z m1688 -83 c80 -37 96 -50 50 -39 -77 17 -124 38 -157 71 -45 45 -47 62 -3 29 18 -14 68 -42 110 -61z m-48 70 c52 -18 162 -19 214 0 52 18 53 11 1 -15 -79 -40 -164 -39 -235 5 -45 28 -38 31 20 10z m-1266 -46 c-31 -25 -33 -30 -21 -49 13 -21 9 -40 -8 -40 -9 0 -35 69 -28 75 2 2 22 17 43 33 49 36 61 19 14 -19z m-339 8 c0 -6 -10 -22 -22 -36 l-23 -26 27 24 c41 36 44 20 4 -18 l-34 -33 3 46 c2 25 6 50 10 55 7 12 35 3 35 -12z m160 -18 c0 -5 -7 -9 -15 -9 -15 0 -20 12 -9 23 8 8 24 -1 24 -14z m-295 -29 c-11 -66 -8 -142 9 -205 9 -32 16 -77 15 -100 -1 -38 -2 -37 -18 25 -9 36 -22 75 -29 87 -17 30 -15 92 4 168 18 72 29 87 19 25z m1065 -22 c0 -3 -16 -12 -35 -18 -19 -6 -43 -22 -53 -35 l-19 -24 -34 29 c-30 25 -31 28 -10 23 21 -5 22 -4 11 16 -6 13 -9 25 -6 28 3 3 8 -2 12 -11 9 -24 23 -19 16 7 -5 20 -4 21 11 8 15 -12 17 -12 11 3 -3 9 -1 16 5 16 6 0 11 -6 12 -12 0 -10 2 -10 6 0 4 10 8 10 19 1 11 -9 14 -8 14 7 0 16 3 16 20 -6 11 -14 20 -28 20 -32z m-500 -13 c-10 -16 -38 -40 -61 -52 -34 -18 -37 -23 -19 -23 12 0 28 -8 35 -17 11 -15 13 -15 20 6 5 15 10 19 18 12 7 -5 23 -11 37 -13 20 -2 26 -10 31 -43 4 -22 3 -44 -2 -50 -6 -6 -9 -6 -9 0 0 6 -14 11 -31 11 -18 1 -36 8 -40 17 -8 13 -16 8 -51 -26 l-41 -41 39 -14 c21 -8 90 -17 152 -19 61 -3 112 -8 112 -12 0 -11 -95 -71 -129 -81 -18 -5 -53 -7 -77 -3 -51 7 -112 -13 -94 -31 8 -8 14 -6 22 7 8 16 18 18 73 12 63 -7 65 -7 169 43 13 7 -30 -52 -68 -92 -32 -35 -33 -35 -72 -21 -21 8 -61 14 -87 15 -58 0 -82 11 -101 48 -13 25 -15 25 -22 8 -5 -14 1 -26 24 -48 28 -24 40 -28 96 -28 35 0 77 -5 94 -11 42 -14 63 -1 116 72 43 59 45 60 48 32 2 -20 12 -33 34 -44 l31 -15 -17 -58 c-19 -60 -46 -104 -103 -170 l-34 -40 -34 26 c-58 44 -97 59 -220 84 -138 29 -267 75 -311 112 -59 50 -72 125 -43 257 8 39 17 87 20 109 4 26 19 52 45 80 l39 41 33 -19 c18 -10 59 -32 90 -47 51 -26 61 -36 94 -99 20 -39 45 -75 54 -80 14 -8 12 2 -10 43 -48 89 -48 91 12 107 40 10 63 24 98 61 48 51 74 48 40 -6z m-283 28 c-4 -3 -7 0 -7 7 0 7 3 10 7 7 3 -4 3 -10 0 -14z m1834 -13 c6 0 7 -4 4 -10 -3 -5 -20 -10 -37 -10 -26 0 -29 2 -18 15 7 9 20 13 27 10 8 -3 19 -5 24 -5z m-1292 -15 c62 -22 97 -50 141 -116 24 -35 56 -67 78 -78 27 -15 31 -20 17 -21 -28 0 -80 34 -118 78 -56 65 -98 102 -146 127 -52 27 -36 33 28 10z m-79 -14 c51 -20 140 -84 140 -102 0 -5 -21 6 -47 25 -58 41 -103 64 -157 81 -36 11 -37 13 -14 14 15 1 51 -8 78 -18z m1336 -46 c36 -63 29 -75 -46 -75 -33 0 -60 4 -60 10 0 6 4 10 9 10 5 0 14 14 21 30 14 35 18 36 37 13 13 -16 13 -16 4 4 -9 18 -6 53 5 53 2 0 15 -20 30 -45z m32 32 c-12 -10 -14 -17 -6 -31 5 -9 8 -20 5 -23 -5 -4 -37 49 -37 62 0 3 12 5 28 5 24 -1 25 -2 10 -13z m97 3 c3 -5 -2 -10 -12 -11 -13 -1 -10 -3 7 -9 l25 -7 -25 -11 c-24 -10 -24 -11 -2 -11 12 -1 22 -5 22 -11 0 -5 -10 -11 -22 -11 -17 -1 -19 -2 -5 -6 25 -6 21 -18 -10 -30 l-28 -11 28 -1 c38 -1 34 -21 -5 -22 l-33 -1 30 -13 30 -14 -28 -1 c-33 0 -27 -20 6 -21 16 -1 12 -4 -13 -12 -30 -9 -32 -11 -12 -15 31 -5 28 -22 -5 -23 -21 -1 -23 -2 -8 -6 40 -10 39 -23 -1 -24 l-39 -1 35 -13 35 -13 -45 -2 -45 -2 33 -10 c44 -15 41 -28 -5 -22 l-38 4 40 -20 40 -20 -43 4 c-23 2 -40 0 -36 -5 3 -5 -11 -9 -30 -9 -20 0 -36 2 -36 4 0 2 18 48 39 102 22 55 52 141 67 192 26 87 29 92 55 92 15 0 31 -4 34 -10z m-1620 -27 c-9 -8 -18 -13 -21 -10 -8 8 19 36 29 30 4 -2 0 -11 -8 -20z m497 -10 c18 -16 18 -16 12 3 -6 16 -4 16 19 -5 l27 -24 -30 -19 c-17 -10 -33 -25 -36 -33 -5 -13 -9 -13 -34 0 -37 19 -46 34 -18 28 21 -4 22 -3 6 10 -25 20 -22 30 5 16 18 -9 20 -9 10 2 -22 22 -14 33 8 13 22 -19 22 -19 10 4 -14 26 -5 29 21 5z m1038 12 c0 -3 -2 -5 -5 -5 -3 0 -5 2 -5 5 0 3 2 5 5 5 3 0 5 -2 5 -5z m-840 -65 c25 -7 77 -16 115 -21 69 -8 68 -8 -25 -5 -102 3 -181 28 -217 68 -16 18 -13 18 32 -5 28 -14 71 -30 95 -37z m556 45 c-4 -30 -59 -75 -90 -75 l-31 1 36 18 c34 17 96 58 74 49 -5 -2 -35 -16 -66 -30 -73 -35 -166 -53 -199 -39 -24 9 -24 10 10 11 67 1 178 34 267 79 1 1 0 -6 -1 -14z m-1115 -38 c-1 -12 -15 -9 -19 4 -3 6 1 10 8 8 6 -3 11 -8 11 -12z m-16 -21 c21 -9 35 -11 35 -5 0 6 5 7 11 3 8 -4 7 -9 -2 -15 -11 -7 -9 -12 9 -24 27 -20 31 -51 5 -40 -10 4 -45 7 -78 6 -48 -1 -56 1 -42 10 11 6 33 8 50 5 21 -4 27 -3 18 3 -11 7 -10 10 5 14 10 2 -2 5 -28 6 -27 0 -48 5 -48 10 0 6 16 7 37 4 26 -4 34 -3 29 5 -4 7 -16 12 -27 12 -10 0 -19 5 -19 10 0 13 4 13 45 -4z m453 -76 c13 0 14 2 4 9 -17 10 -15 23 4 34 8 5 12 12 9 17 -8 13 25 21 46 10 19 -11 19 -11 -1 -33 -12 -12 -19 -30 -16 -41 4 -17 0 -18 -46 -12 -60 8 -113 34 -147 70 -22 23 -17 22 53 -14 42 -22 85 -40 94 -40z m642 55 c0 -3 -2 -5 -5 -5 -3 0 -5 2 -5 5 0 3 2 5 5 5 3 0 5 -2 5 -5z m194 -40 c15 -25 31 -44 34 -41 2 3 -7 21 -22 40 -14 19 -26 37 -26 40 0 3 26 6 57 6 61 0 65 -9 8 -19 l-35 -6 25 -37 c28 -42 32 -56 10 -38 -12 10 -15 10 -15 -2 0 -11 -15 -17 -46 -22 -67 -9 -96 -8 -89 4 3 6 33 10 66 10 32 0 59 3 59 6 0 3 -16 25 -35 48 -35 43 -41 56 -27 56 4 0 20 -20 36 -45z m-224 21 c-38 -35 -124 -45 -175 -21 -28 13 -26 14 35 9 44 -4 78 -1 105 9 52 19 52 19 35 3z m-1230 -8 c0 -17 -20 -47 -20 -31 0 6 -3 18 -6 27 -4 11 -1 16 10 16 9 0 16 -6 16 -12z m1454 -60 c-3 -4 -24 -8 -47 -7 -40 1 -41 1 -15 11 23 8 26 13 18 28 -18 33 -11 35 20 5 16 -15 27 -32 24 -37z m72 53 c-14 -5 -16 -10 -8 -15 7 -4 12 -12 12 -18 0 -6 -9 -3 -20 7 -27 25 -25 35 8 34 23 0 24 -2 8 -8z m-2165 -161 c16 -47 57 -131 77 -153 8 -9 12 -20 9 -23 -8 -9 -69 79 -89 129 -10 26 -17 34 -17 22 -1 -21 19 -66 54 -120 l19 -30 -23 20 c-43 36 -58 90 -58 205 -1 98 0 101 8 45 5 -32 14 -75 20 -95z m2036 133 c-4 -3 -10 -3 -14 0 -3 4 0 7 7 7 7 0 10 -3 7 -7z m-1207 -13 c-36 -12 -100 -12 -100 0 0 6 27 10 63 9 46 -1 56 -3 37 -9z m88 -2 c19 -19 14 -28 -17 -28 -48 0 -48 29 0 39 3 0 10 -4 17 -11z m202 2 c12 -7 8 -10 -15 -10 -28 -1 -29 -2 -7 -10 12 -5 22 -12 22 -14 0 -3 -7 -3 -15 0 -13 6 -91 -7 -126 -21 -19 -7 -34 31 -16 42 33 20 133 29 157 13z m375 -20 c-3 -5 -23 -10 -43 -9 -33 1 -34 2 -12 9 36 12 62 12 55 0z m-270 -21 c14 -14 -26 -10 -60 6 l-30 15 40 -6 c22 -3 44 -10 50 -15z m195 1 c20 -6 16 -8 -25 -10 -37 -1 -45 -4 -30 -10 11 -5 77 -6 147 -4 135 5 145 2 133 -43 -6 -24 -7 -24 -25 -8 -16 15 -27 15 -92 5 -69 -11 -77 -10 -141 14 -37 14 -86 26 -110 27 -33 0 -38 2 -22 9 11 5 36 9 55 9 26 1 31 4 20 11 -19 12 52 12 90 0z m-476 -32 c5 -14 5 -38 1 -54 -8 -28 -9 -27 -15 16 -3 25 -9 51 -14 59 -6 9 -5 12 5 9 8 -3 18 -16 23 -30z m-34 -39 c0 -25 -5 -39 -16 -43 -12 -5 -15 -2 -10 10 3 9 8 28 11 42 5 27 5 27 -9 -2 -15 -33 -32 -20 -20 17 16 52 44 37 44 -24z m1230 51 c-8 -5 -34 -10 -57 -10 -48 0 -53 -8 -22 -36 11 -10 25 -28 31 -39 6 -11 -10 0 -36 25 -25 24 -46 47 -46 51 0 8 43 14 110 17 26 1 31 -1 20 -8z m-989 -15 c61 -22 179 -48 186 -42 3 3 -11 9 -31 12 -20 4 -38 10 -41 14 -7 12 104 -6 138 -22 18 -8 39 -17 47 -21 8 -3 -5 -3 -30 -1 -25 3 -75 5 -111 5 -48 -1 -89 6 -145 25 -60 20 -93 26 -136 23 -46 -3 -55 -2 -46 9 15 18 115 17 169 -2z m888 -46 l36 -44 -45 39 c-47 41 -62 62 -40 54 8 -2 29 -24 49 -49z m78 34 c-15 -4 -17 -11 -12 -31 l7 -27 -26 24 c-35 33 -33 41 12 40 20 -1 29 -3 19 -6z m-1033 -18 c22 -8 43 -12 46 -10 3 2 31 -3 61 -12 30 -9 47 -18 38 -20 -9 -2 -35 3 -58 10 -22 8 -41 11 -41 7 0 -4 -23 -3 -52 2 -28 5 -62 8 -75 5 -27 -5 -42 11 -22 24 20 12 58 10 103 -6z m957 -119 c46 -49 73 -83 59 -76 -38 19 -180 167 -180 187 0 16 2 16 18 -2 10 -11 56 -60 103 -109z m-35 103 c19 -22 19 -22 -3 -10 -24 12 -39 31 -25 31 5 0 17 -10 28 -21z m-400 -21 c4 -6 -3 -19 -16 -30 -27 -22 -41 -23 -34 -3 5 12 -4 15 -42 16 l-49 1 40 13 c51 17 92 18 101 3z m-1490 -34 c0 -28 7 -43 30 -63 28 -25 222 -113 274 -125 39 -8 96 -61 120 -112 25 -51 20 -73 -5 -24 -20 39 -81 107 -109 122 -15 8 -12 1 12 -26 17 -20 32 -42 32 -49 -1 -7 -11 0 -23 16 -21 25 -45 39 -33 18 3 -5 -26 4 -64 20 -39 17 -92 33 -118 36 -38 4 -48 9 -48 24 0 11 7 19 17 19 28 0 100 -29 152 -61 27 -16 51 -28 54 -26 8 8 -90 63 -182 101 -87 37 -135 72 -135 101 0 15 18 65 23 65 2 0 3 -16 3 -36z m944 26 c0 -5 -7 -10 -16 -10 -8 0 -12 5 -9 10 3 6 10 10 16 10 5 0 9 -4 9 -10z m-43 -7 c-4 -3 -10 -3 -14 0 -3 4 0 7 7 7 7 0 10 -3 7 -7z m80 1 c-3 -3 -12 -4 -19 -1 -8 3 -5 6 6 6 11 1 17 -2 13 -5z m290 -1 c-4 -3 -10 -3 -14 0 -3 4 0 7 7 7 7 0 10 -3 7 -7z m48 -11 c-6 -4 -36 -28 -68 -52 -33 -24 -99 -87 -149 -139 -49 -53 -85 -87 -80 -76 31 61 256 275 290 275 9 0 12 -3 7 -8z m81 -13 c3 -6 -6 -23 -21 -39 -28 -29 -115 -95 -115 -87 0 3 16 24 35 47 19 23 35 50 35 60 0 25 53 40 66 19z m-1325 -60 c13 -10 19 -19 12 -19 -19 0 -73 50 -73 68 0 13 5 12 19 -7 10 -13 29 -32 42 -42z m800 48 c8 -7 23 -24 33 -39 15 -24 16 -32 5 -63 -16 -42 -29 -46 -29 -7 0 32 -25 72 -45 72 -21 0 -28 19 -15 35 15 18 30 18 51 2z m63 -18 c14 -17 26 -39 26 -50 0 -25 -27 -79 -40 -79 -13 0 -13 4 7 44 16 34 16 36 -10 70 -15 19 -27 37 -27 40 0 15 21 3 44 -25z m43 9 c41 -45 46 -66 26 -101 -11 -18 -27 -33 -37 -35 -16 -4 -16 -2 -2 27 21 40 20 52 -9 95 -28 41 -12 51 22 14z m56 -2 c35 -32 42 -65 23 -110 -12 -28 -21 -36 -40 -36 l-25 0 24 36 c14 20 25 40 25 44 0 4 -14 26 -30 48 -34 47 -20 58 23 18z m78 -3 c4 -5 10 -22 13 -38 6 -26 2 -35 -25 -60 -25 -24 -30 -26 -24 -10 16 43 15 52 -9 88 -14 21 -26 40 -26 42 0 6 63 -14 71 -22z m407 6 c2 -9 -21 -25 -64 -43 -72 -32 -140 -80 -221 -160 -33 -31 -53 -44 -53 -35 0 17 123 140 179 179 53 37 135 80 146 76 6 -1 11 -9 13 -17z m-323 -19 c-33 -35 -45 -38 -45 -10 0 21 25 39 54 40 17 0 16 -4 -9 -30z m38 -74 c-40 -52 -60 -71 -63 -60 -4 11 -14 6 -40 -21 -38 -39 -57 -46 -40 -15 12 23 192 182 198 176 2 -3 -22 -38 -55 -80z m923 65 c40 -24 77 -72 103 -134 30 -69 26 -81 -7 -21 -43 77 -81 122 -126 149 -29 18 -35 25 -21 25 11 0 34 -9 51 -19z m-629 -35 c-3 -8 -42 -33 -87 -57 -45 -23 -107 -62 -137 -85 -51 -40 -94 -56 -93 -36 1 17 155 131 231 170 79 40 99 42 86 8z m586 -7 c70 -35 147 -119 147 -160 0 -7 -7 -4 -15 7 -8 10 -15 14 -15 8 0 -16 51 -83 90 -119 l33 -30 -20 30 c-29 44 -39 78 -12 42 32 -42 102 -86 223 -139 61 -26 117 -56 124 -65 14 -20 16 -72 2 -93 -7 -11 -10 -5 -10 23 0 30 -7 45 -28 65 -28 26 -219 114 -275 126 -59 14 -146 121 -133 164 7 22 -56 86 -128 131 -57 35 -46 41 17 10z m-1263 -8 c22 -42 14 -53 -58 -75 -33 -11 -38 16 -12 59 24 39 54 46 70 16z m960 -11 c0 -5 -6 -10 -14 -10 -8 0 -23 -3 -33 -7 -16 -6 -16 -5 -4 10 15 18 51 23 51 7z m24 -29 c4 -5 -18 -17 -46 -26 -29 -10 -64 -24 -77 -32 -18 -12 -22 -12 -19 -2 5 15 102 69 124 69 7 0 15 -4 18 -9z m-326 -18 c-2 -10 -7 -17 -11 -15 -4 1 -17 2 -29 2 -22 1 -23 1 -4 15 27 20 48 19 44 -2z m-289 -30 c-32 -40 -59 -67 -59 -58 0 5 14 24 32 42 34 35 49 44 27 16z m664 -10 c15 -17 12 -18 -46 -19 -63 0 -128 -25 -156 -58 -16 -20 -31 -21 -31 -2 0 18 69 65 122 81 60 19 92 18 111 -2z m-1043 -33 c0 -16 -4 -30 -10 -30 -5 0 -10 3 -10 8 0 4 -3 17 -6 30 -5 16 -2 22 10 22 11 0 16 -9 16 -30z m46 8 c-3 -13 -6 -27 -7 -33 -1 -12 -17 25 -18 43 -1 6 6 12 15 12 12 0 15 -6 10 -22z m51 6 c2 -5 -3 -19 -12 -29 -14 -19 -14 -18 -15 13 0 31 18 42 27 16z m473 -1 c0 -10 -4 -24 -9 -31 -6 -10 -10 -8 -14 9 -3 12 -4 26 -1 31 9 14 24 9 24 -9z m49 -13 c-6 -16 -15 -30 -20 -30 -5 0 -9 14 -9 30 0 23 5 30 19 30 18 0 19 -3 10 -30z m61 11 c0 -3 -9 -17 -20 -31 -19 -24 -20 -24 -20 -3 0 33 10 52 26 46 8 -3 14 -8 14 -12z m-390 -16 c-7 -8 -17 -15 -23 -15 -5 0 -2 9 8 20 21 23 35 19 15 -5z m-519 -41 c6 -7 6 -15 1 -18 -4 -2 -28 13 -53 35 l-44 40 43 -22 c24 -13 48 -29 53 -35z m181 31 c6 -30 -7 -33 -22 -6 -13 26 -13 31 4 31 7 0 16 -11 18 -25z m191 -1 c-8 -21 -23 -17 -23 6 0 13 5 18 14 14 8 -3 12 -12 9 -20z m377 5 c0 -11 -4 -17 -10 -14 -5 3 -10 13 -10 21 0 8 5 14 10 14 6 0 10 -9 10 -21z m189 -25 c-28 -30 -35 -24 -19 16 10 24 15 28 27 19 11 -10 10 -16 -8 -35z m-784 -32 c1 -1 19 5 41 14 41 17 127 15 146 -4 7 -7 -10 -8 -54 -5 -52 4 -72 2 -106 -16 -50 -26 -92 -84 -99 -140 -6 -47 17 -119 47 -146 11 -10 20 -24 20 -32 0 -29 -39 8 -66 62 -23 47 -26 64 -21 111 6 54 39 116 75 137 11 7 10 13 -8 32 -13 14 -19 29 -15 36 6 8 13 3 23 -17 8 -16 16 -30 17 -32z m334 -116 c-2 -166 -11 -143 -24 64 -7 106 -7 114 8 101 15 -11 17 -35 16 -165z m41 -5 c-7 -80 -14 -148 -16 -150 -2 -2 -4 65 -4 150 0 111 4 159 13 168 19 19 20 -7 7 -168z m776 163 c32 -15 74 -68 74 -93 0 -7 -11 1 -25 18 -14 16 -42 35 -61 41 -54 18 -144 8 -183 -19 -22 -16 -36 -20 -43 -13 -20 20 109 80 175 81 16 1 44 -6 63 -15z m-601 -4 c3 -5 1 -10 -4 -10 -6 0 -11 5 -11 10 0 6 2 10 4 10 3 0 8 -4 11 -10z m291 -11 c4 -7 -4 -20 -17 -30 -34 -27 -42 -23 -24 11 16 32 29 37 41 19z m-93 -36 c82 -57 110 -169 66 -260 -20 -41 -74 -91 -86 -79 -3 3 8 19 26 35 86 81 79 216 -16 288 -32 25 -45 28 -109 28 -66 0 -75 -3 -113 -33 -41 -33 -58 -31 -22 2 11 10 17 25 14 34 -3 12 -2 14 4 4 8 -10 16 -9 44 3 52 24 142 14 192 -22z m-793 -5 c0 -5 -9 -4 -20 2 -11 6 -18 15 -14 21 6 11 34 -7 34 -23z m338 -125 c12 -81 20 -148 18 -150 -2 -2 -22 55 -45 126 -23 72 -44 137 -47 145 -4 9 3 16 18 19 13 2 26 5 29 6 3 0 15 -65 27 -146z m179 133 c1 -1 -19 -66 -44 -144 -26 -78 -48 -140 -50 -139 -2 2 7 70 19 150 l22 146 25 -6 c14 -3 27 -6 28 -7z m389 -32 c-34 -25 -52 -17 -26 11 17 18 27 22 34 14 8 -7 5 -15 -8 -25z m267 22 c33 -13 87 -68 87 -88 0 -6 -18 6 -40 26 -22 19 -51 38 -65 42 -41 10 -105 -2 -138 -26 -23 -18 -31 -20 -38 -9 -11 19 -2 28 45 50 49 22 104 24 149 5z m-1396 -120 c48 -44 39 -55 -14 -17 -41 30 -75 76 -88 121 -6 18 2 12 28 -22 20 -26 53 -62 74 -82z m971 108 c12 -8 22 -21 22 -27 0 -7 14 -18 30 -24 33 -13 42 -51 15 -73 -9 -7 -12 -22 -9 -39 10 -49 -39 -77 -78 -47 -20 14 -24 36 -8 36 6 0 15 11 22 25 9 19 8 29 -6 50 -27 41 -65 34 -118 -23 -25 -27 -49 -58 -52 -70 -7 -21 -63 -59 -73 -49 -2 3 -7 25 -9 49 l-4 43 12 -38 13 -39 21 24 c35 37 44 63 44 121 0 65 15 82 63 74 20 -3 40 0 52 9 24 18 35 18 63 -2z m-1088 1 c0 -3 -2 -5 -5 -5 -3 0 -5 2 -5 5 0 3 2 5 5 5 3 0 5 -2 5 -5z m300 -10 c10 -12 10 -15 -4 -15 -9 0 -16 7 -16 15 0 8 2 15 4 15 2 0 9 -7 16 -15z m194 0 c13 -13 20 -14 38 -4 17 9 23 9 26 0 3 -9 8 -9 20 1 15 12 16 11 3 -4 -7 -10 -17 -15 -22 -13 -4 3 -15 -8 -24 -26 -13 -24 -21 -30 -37 -25 -22 5 -58 -9 -70 -27 -3 -6 -9 -29 -13 -53 -6 -41 -26 -61 -47 -48 -5 4 -7 21 -3 40 3 21 2 34 -4 34 -17 0 -25 49 -11 65 7 8 21 15 31 15 11 0 19 6 19 14 0 40 64 60 94 31z m1615 -49 c30 -9 67 -16 82 -16 23 0 26 -3 22 -21 -5 -18 -11 -20 -41 -14 -43 8 -137 54 -172 84 l-25 22 40 -19 c22 -11 64 -27 94 -36z m-2007 -103 c32 -33 34 -48 6 -38 -20 8 -71 80 -92 129 -26 63 -18 64 20 0 19 -32 49 -74 66 -91z m1176 120 c-2 -12 -14 -19 -33 -21 l-30 -3 25 20 c31 25 42 26 38 4z m222 7 c16 0 80 -61 80 -76 0 -10 -12 -7 -40 12 -47 31 -109 35 -158 10 -36 -18 -55 -3 -26 20 25 18 105 44 122 38 8 -2 18 -4 22 -4z m394 -65 c61 -12 148 -37 193 -53 45 -17 91 -28 101 -25 20 5 82 -46 82 -68 0 -7 -16 3 -36 24 -20 20 -41 37 -46 37 -5 0 6 -15 25 -33 23 -21 39 -49 46 -77 6 -25 16 -53 21 -62 6 -10 10 -25 10 -34 0 -8 11 -49 25 -90 24 -67 25 -79 15 -134 -18 -100 -29 -114 -23 -29 4 54 1 96 -10 140 -9 35 -19 78 -23 94 l-7 30 -7 -35 c-23 -111 -42 -208 -44 -230 -2 -14 -5 -27 -6 -30 -1 -3 -1 -13 0 -24 1 -10 -1 -28 -4 -41 -5 -18 -11 -21 -31 -17 l-26 5 26 27 c15 16 24 33 21 38 -4 6 -2 13 4 17 5 3 10 11 10 16 0 6 -17 -4 -37 -21 -23 -18 -70 -41 -119 -56 -87 -26 -105 -40 -144 -112 -43 -80 -83 -62 -141 63 -23 49 -120 158 -149 167 -28 9 16 44 72 57 28 6 77 23 109 37 54 24 59 25 81 10 25 -18 64 -21 73 -6 11 17 24 11 39 -17 l15 -28 1 25 c0 14 -7 36 -16 48 -15 21 -14 22 20 22 19 0 42 -7 50 -16 9 -9 16 -11 16 -4 0 6 -10 21 -22 33 -13 13 -28 35 -35 49 -11 25 -10 27 16 33 17 4 45 0 67 -9 l39 -16 -41 39 c-45 43 -109 66 -155 57 -18 -3 -29 0 -33 9 -2 7 -20 15 -38 17 -28 3 -36 10 -58 53 -24 47 -27 50 -68 53 -34 3 -52 11 -78 37 l-34 35 22 34 22 34 49 -25 c27 -13 99 -35 161 -48z m-1312 -39 c-17 -26 -33 -43 -35 -39 -3 5 8 30 24 57 17 26 28 50 26 52 -3 3 -17 -16 -31 -41 -26 -43 -36 -54 -36 -37 0 4 15 32 32 62 l32 55 9 -31 c7 -26 4 -38 -21 -78z m-297 84 c3 -5 -1 -10 -9 -10 -9 0 -16 5 -16 10 0 6 4 10 9 10 6 0 13 -4 16 -10z m1011 -49 c-8 -12 -49 -15 -60 -4 -9 10 47 32 58 23 4 -5 5 -13 2 -19z m-1022 -2 c-8 -14 -34 -10 -34 5 0 9 7 12 20 9 11 -3 17 -9 14 -14z m1229 -3 c18 -7 43 -26 57 -41 l25 -27 -37 22 c-30 17 -49 21 -95 18 -32 -2 -66 -8 -75 -12 -12 -5 -18 -4 -18 3 0 12 74 50 98 51 7 0 27 -6 45 -14z m-900 -108 c-22 -42 -28 -49 -31 -31 -2 12 9 45 25 75 22 42 28 49 31 31 2 -12 -9 -45 -25 -75z m-338 72 c4 -6 -5 -10 -20 -10 -15 0 -24 4 -20 10 3 6 12 10 20 10 8 0 17 -4 20 -10z m1043 -1 c-2 -6 -7 -10 -11 -10 -4 1 -19 1 -33 1 -14 0 -23 4 -19 10 8 14 68 13 63 -1z m1092 -127 c12 -31 24 -88 26 -127 l4 -70 -19 85 c-22 98 -41 146 -83 210 l-29 45 40 -43 c22 -24 50 -69 61 -100z m-1884 61 l13 -48 0 40 c1 30 4 36 11 25 11 -17 12 -122 1 -160 -5 -20 -14 -26 -42 -28 l-35 -3 0 95 c1 53 2 96 3 96 1 0 9 -12 18 -27 l16 -28 -4 35 c-2 19 -8 44 -12 55 -6 16 -5 18 5 8 7 -6 19 -33 26 -60z m455 39 c-6 -12 -11 -33 -10 -49 0 -26 1 -26 9 -7 18 46 25 29 26 -63 l0 -94 -35 3 c-41 3 -49 21 -49 108 -1 68 16 117 18 55 l2 -40 9 38 c10 44 28 81 36 74 2 -3 0 -14 -6 -25z m1401 11 c21 -25 44 -72 51 -108 5 -23 1 -19 -14 15 -11 24 -31 59 -45 77 -26 34 -19 47 8 16z m-835 -14 c44 -27 38 -32 -15 -14 -41 14 -88 12 -124 -7 -13 -6 -18 -5 -18 5 0 38 104 48 157 16z m-1284 -26 c-33 -17 -51 -13 -38 6 3 6 21 11 38 10 l32 0 -32 -16z m387 -22 c-6 -12 -15 -21 -21 -21 -5 0 -2 15 7 33 10 17 19 27 21 20 2 -7 -1 -21 -7 -32z m670 19 c0 -18 -3 -18 -27 -8 -46 19 -49 28 -10 28 30 0 37 -4 37 -20z m229 -9 c7 -5 -17 -10 -56 -14 -37 -3 -73 -7 -78 -9 -6 -2 -12 2 -15 7 -13 27 106 39 149 16z m267 -133 c31 -140 31 -140 10 -148 -24 -9 -36 8 -15 21 11 7 9 9 -5 9 -16 0 -17 3 -8 12 17 17 15 29 -3 22 -18 -7 -20 7 -3 24 9 9 8 12 -5 12 -20 0 -22 11 -5 28 9 9 8 12 -5 12 -22 0 -22 9 1 26 16 12 15 13 -5 14 -13 0 -23 5 -23 10 0 6 5 10 12 10 6 0 4 6 -6 13 -18 13 -18 14 -1 21 17 6 17 7 -1 21 -19 13 -19 14 1 29 11 8 22 12 25 9 3 -2 19 -68 36 -145z m-1350 60 c-10 -101 -26 -111 -26 -17 0 74 4 89 23 89 6 0 7 -28 3 -72z m572 -14 c4 -101 -15 -89 -24 15 -6 61 -5 73 7 69 10 -3 15 -27 17 -84z m711 -60 c29 -139 30 -147 14 -160 -13 -9 -21 -9 -28 -2 -7 7 -6 12 3 15 13 5 17 24 5 22 -22 -4 -25 3 -7 16 19 14 18 14 -3 15 -28 0 -29 8 -5 26 16 12 15 13 -7 14 -23 0 -24 1 -6 20 18 19 17 20 -5 20 -22 0 -23 1 -5 20 16 18 16 20 2 20 -19 0 -23 20 -4 20 7 0 4 7 -7 15 -18 13 -18 15 -2 21 15 6 15 8 -5 22 -21 15 -21 16 -4 29 11 7 22 13 25 13 4 0 21 -66 39 -146z m-1484 101 c-34 -28 -55 -32 -55 -10 0 17 32 34 65 34 17 0 16 -3 -10 -24z m159 9 c10 -26 7 -141 -4 -124 -14 24 -24 140 -12 140 5 0 13 -7 16 -16z m247 -17 c-8 -8 -11 -7 -11 4 0 9 3 19 7 23 4 4 9 2 11 -4 3 -7 -1 -17 -7 -23z m159 29 c0 -2 -7 -6 -15 -10 -8 -3 -15 -1 -15 4 0 6 7 10 15 10 8 0 15 -2 15 -4z m246 -58 c-11 -90 -25 -108 -26 -31 0 66 6 93 22 93 7 0 8 -22 4 -62z m213 56 c33 -7 44 -34 14 -34 -20 0 -75 39 -57 40 6 0 26 -3 43 -6z m390 -143 c17 -74 31 -141 31 -148 0 -7 -11 -13 -26 -13 -22 0 -25 2 -14 15 10 12 9 15 -6 15 -18 1 -18 1 0 15 11 8 17 16 13 16 -4 1 -11 3 -17 4 -5 1 -13 3 -17 4 -5 1 1 8 11 16 17 13 18 15 3 15 -20 0 -22 11 -5 28 9 9 7 12 -12 12 l-25 1 24 19 c23 20 23 20 2 20 -12 0 -21 5 -21 10 0 6 5 10 10 10 18 0 11 20 -7 20 -17 1 -17 2 -1 13 15 12 15 14 0 25 -16 10 -16 12 2 27 11 8 21 14 22 12 1 -1 16 -63 33 -136z m-1699 113 c0 -2 -11 -4 -25 -4 -14 0 -25 4 -25 9 0 4 11 6 25 3 14 -2 25 -6 25 -8z m1424 -13 c-45 -15 -106 -42 -137 -59 -65 -37 -77 -40 -53 -13 21 23 114 66 187 85 88 24 90 17 3 -13z m-1495 -7 c17 -14 31 -33 31 -42 0 -13 -4 -12 -22 6 -27 25 -70 42 -104 42 -14 0 -22 4 -19 10 13 21 82 11 114 -16z m386 -14 c-30 -32 -17 -42 19 -15 11 8 23 15 28 15 16 0 -4 -26 -38 -50 l-36 -24 -24 27 c-13 16 -24 32 -24 36 0 8 93 50 99 44 3 -2 -8 -17 -24 -33z m965 8 c0 -12 -24 -10 -38 4 -20 20 -13 28 13 16 14 -6 25 -15 25 -20z m302 -44 c23 -90 23 -89 -12 -104 -40 -16 -52 -4 -20 20 l25 20 -27 0 c-32 0 -35 7 -10 26 16 12 15 13 -5 14 -29 0 -30 18 -2 28 20 8 20 8 -5 20 -32 14 -34 39 -3 45 37 7 40 3 59 -69z m-941 53 c-1 -4 -1 -13 -1 -19 0 -7 -12 -26 -26 -43 -24 -29 -25 -29 -19 -5 12 47 28 81 37 78 5 -2 9 -7 9 -11z m279 -45 c5 -20 8 -38 5 -40 -8 -8 -57 77 -50 88 11 17 33 -7 45 -48z m-222 25 c4 -18 -55 -84 -65 -73 -3 3 1 14 10 23 8 10 19 31 22 46 8 29 28 32 33 4z m152 6 c0 -10 9 -29 20 -43 25 -32 25 -43 0 -30 -27 15 -53 57 -46 75 8 21 26 19 26 -2z m624 -73 c10 -50 16 -96 13 -104 -6 -15 -55 -28 -62 -16 -3 5 7 18 22 29 l28 20 -32 1 c-39 0 -42 11 -10 33 l22 16 -22 0 c-26 1 -31 19 -8 27 21 8 19 21 -5 27 -37 10 -15 51 30 56 3 1 14 -40 24 -89z m444 74 c30 -8 25 -36 -8 -44 -39 -9 -32 -35 10 -35 44 0 55 -30 16 -45 -38 -14 -32 -30 12 -30 46 0 55 -6 41 -31 -12 -23 -40 -24 -78 -4 -25 12 -30 24 -40 78 -20 117 -16 127 47 111z m-1997 -39 c57 -38 87 -121 59 -165 -7 -11 -10 -6 -10 20 0 46 -37 109 -77 132 -19 11 -62 22 -104 25 -91 8 -65 25 29 19 47 -3 73 -10 103 -31z m1304 24 c11 -17 -1 -21 -15 -4 -8 9 -8 15 -2 15 6 0 14 -5 17 -11z m-1604 -13 c-7 -8 -21 -12 -32 -9 -35 9 -31 23 7 23 30 0 34 -2 25 -14z m1559 -1 c0 -3 -2 -5 -5 -5 -3 0 -5 2 -5 5 0 3 2 5 5 5 3 0 5 -2 5 -5z m203 -88 c22 -99 22 -97 -9 -97 -22 0 -25 2 -14 15 10 12 9 15 -7 15 -31 0 -36 13 -11 32 l23 18 -27 0 c-32 0 -37 16 -8 25 11 3 20 10 20 15 0 4 -9 10 -20 13 -11 3 -20 12 -20 20 0 15 41 39 51 28 3 -3 13 -41 22 -84z m-1185 67 c33 -4 42 -9 42 -24 0 -25 -21 -70 -32 -70 -5 0 -6 5 -3 10 3 6 1 10 -5 10 -6 0 -8 5 -4 13 5 7 2 7 -10 -2 -9 -8 -16 -10 -15 -5 6 31 -9 39 -40 20 -11 -7 -13 -5 -7 10 5 14 4 16 -4 8 -17 -17 -56 -5 -69 22 l-11 24 58 -5 c31 -3 76 -8 100 -11z m-366 -5 c37 -8 63 -22 85 -44 30 -30 33 -38 32 -91 l-1 -59 -10 43 c-13 60 -71 117 -131 130 -52 11 -144 -1 -188 -24 -34 -17 -39 -5 -6 15 60 38 134 48 219 30z m578 2 c0 -5 -16 -19 -35 -31 -19 -12 -35 -24 -35 -27 0 -3 10 1 23 9 32 21 57 29 57 18 0 -5 -27 -23 -60 -41 -32 -17 -86 -56 -120 -86 -33 -30 -60 -51 -60 -46 0 20 93 124 150 166 62 47 80 55 80 38z m738 -8 c55 -35 122 -96 157 -142 19 -27 35 -52 35 -56 0 -4 -27 18 -60 48 -34 30 -88 69 -120 86 -66 35 -84 64 -20 31 49 -25 52 -19 5 10 -19 12 -35 26 -35 31 0 13 7 11 38 -8z m-1608 -18 c0 -8 -7 -15 -15 -15 -8 0 -15 7 -15 15 0 8 7 15 15 15 8 0 15 -7 15 -15z m-250 -4 c0 -6 -16 -22 -36 -37 -19 -15 -45 -46 -57 -68 -21 -40 -22 -40 -25 -14 -5 40 25 94 61 112 37 18 57 20 57 7z m45 -1 c-3 -5 -13 -10 -21 -10 -8 0 -12 5 -9 10 3 6 13 10 21 10 8 0 12 -4 9 -10z m681 -7 c16 -21 18 -89 4 -98 -6 -4 -10 8 -10 29 0 19 -4 46 -10 60 -11 30 -3 34 16 9z m827 2 c32 -8 72 -15 90 -15 64 -1 185 -28 243 -56 38 -18 87 -55 141 -107 85 -83 97 -87 157 -62 17 7 17 6 6 -16 -41 -76 -102 -62 -174 37 -66 91 -192 162 -324 183 -31 5 -58 8 -59 7 -5 -4 66 -69 105 -97 26 -18 50 -45 59 -67 31 -75 46 -103 73 -132 33 -35 29 -37 -15 -10 -17 11 -40 37 -49 57 -48 101 -65 128 -94 151 l-32 25 6 -30 c8 -38 -12 -53 -21 -16 -3 16 -15 39 -25 53 l-20 25 15 -37 c20 -51 19 -83 -2 -43 -22 42 -43 65 -78 82 -28 14 -28 13 6 -16 34 -29 69 -85 69 -111 0 -7 -16 8 -35 32 -63 78 -68 82 -82 62 -7 -9 -9 -22 -6 -28 4 -6 -3 -2 -15 8 -21 18 -23 18 -41 2 -18 -16 -19 -15 -25 16 -7 33 -7 33 -20 10 -6 -12 -15 -19 -19 -16 -4 4 -7 3 -7 -3 0 -6 -16 -30 -35 -53 -19 -23 -35 -37 -35 -31 0 25 41 90 72 116 l33 26 -30 -14 c-35 -17 -56 -39 -78 -82 -21 -40 -22 -8 -2 43 l15 37 -20 -25 c-11 -14 -20 -30 -20 -36 0 -5 -7 -19 -15 -30 -14 -17 -14 -15 -10 30 2 32 11 57 26 72 l22 24 -22 0 c-94 0 -259 -78 -330 -156 -44 -47 -51 -52 -62 -37 -12 13 -6 23 43 68 93 87 212 134 337 135 25 1 71 9 101 20 67 24 108 25 183 5z m427 6 c0 -5 3 -18 7 -28 6 -17 5 -17 -15 1 -26 22 -28 36 -7 36 8 0 15 -4 15 -9z m-1870 -13 c0 -7 -28 -26 -63 -43 -44 -22 -72 -43 -97 -78 -19 -26 -36 -43 -38 -37 -6 18 31 80 66 111 56 49 132 76 132 47z m446 -24 c49 -24 87 -109 64 -144 -8 -12 -10 -10 -10 10 0 41 -37 90 -83 110 -77 36 -168 22 -244 -36 -18 -14 -33 -21 -33 -16 0 15 54 60 90 76 48 21 172 21 216 0z m279 -14 c40 -42 28 -45 -19 -4 -22 19 -33 34 -25 34 9 0 28 -13 44 -30z m-607 -27 c-4 -22 -22 -20 -26 1 -2 10 3 16 13 16 10 0 15 -7 13 -17z m275 6 c41 -21 77 -63 88 -102 15 -56 5 -56 -22 0 -46 91 -127 109 -246 53 -66 -31 -67 -31 -44 -6 53 57 166 84 224 55z m328 -7 c29 -24 32 -49 8 -62 -11 -7 -19 -7 -19 -1 0 5 6 12 13 15 6 3 2 3 -9 1 -19 -5 -22 -1 -26 30 -5 40 0 43 33 17z m419 -7 c0 -3 -2 -5 -5 -5 -3 0 -5 2 -5 5 0 3 2 5 5 5 3 0 5 -2 5 -5z m491 -7 c81 -28 139 -86 170 -171 17 -48 44 -73 105 -97 l49 -19 -48 -1 c-40 0 -53 5 -77 28 -16 16 -34 48 -40 72 -23 86 -75 140 -175 182 -46 19 -35 24 16 6z m569 -3 c0 -8 -7 -15 -15 -15 -8 0 -15 7 -15 15 0 8 7 15 15 15 8 0 15 -7 15 -15z m-2230 -17 c-54 -27 -108 -96 -138 -176 l-22 -57 5 49 c7 71 47 151 86 175 18 11 36 18 40 15 4 -2 10 0 14 6 3 5 18 10 33 10 23 0 21 -3 -18 -22z m1112 2 c-24 -11 -41 -24 -38 -28 3 -5 -3 -17 -14 -27 -11 -10 -30 -44 -41 -76 -22 -61 -49 -96 -49 -65 0 32 31 91 68 129 20 20 31 37 25 37 -22 0 -79 -77 -101 -136 -24 -66 -65 -116 -75 -91 -3 8 5 24 19 36 13 12 36 47 50 79 14 31 39 72 57 91 32 33 99 71 127 71 8 0 -4 -9 -28 -20z m-681 -21 c27 -14 47 -48 54 -94 l6 -40 -23 39 c-13 22 -36 49 -51 60 -38 28 -115 27 -181 -2 -36 -16 -45 -18 -35 -6 44 53 168 77 230 43z m702 -20 c-23 -22 -46 -53 -52 -70 -6 -16 -16 -43 -22 -60 -11 -27 -44 -59 -89 -85 -8 -4 2 11 22 35 21 24 45 65 55 90 22 60 34 77 74 107 51 37 57 28 12 -17z m1042 31 c3 -5 1 -10 -4 -10 -6 0 -11 5 -11 10 0 6 2 10 4 10 3 0 8 -4 11 -10z m80 -41 c7 -43 -12 -79 -43 -79 -13 0 -12 3 2 19 13 15 14 20 4 23 -11 4 -11 8 0 20 10 13 9 17 -10 22 l-23 6 25 15 c36 20 37 19 45 -26z m-471 -71 c14 -29 26 -61 26 -72 -1 -21 -1 -21 -15 -2 -8 11 -22 40 -31 65 -10 25 -29 59 -43 75 l-26 29 32 -21 c17 -12 43 -45 57 -74z m-1172 -15 c-27 -27 -66 -75 -87 -106 -39 -58 -45 -62 -80 -47 l-20 9 20 0 c17 1 17 3 5 11 -13 8 -12 10 3 10 20 0 22 11 5 29 -11 10 -9 11 7 5 18 -7 19 -6 5 11 -14 17 -13 18 7 13 20 -5 21 -4 12 14 -10 18 -9 19 13 7 21 -11 22 -11 9 5 -12 14 -12 19 -1 29 10 9 11 9 6 0 -5 -9 -2 -11 8 -7 9 3 12 12 8 22 -5 15 -4 15 13 2 17 -14 17 -13 10 10 -7 22 -6 23 9 11 14 -12 16 -12 10 3 -5 14 4 21 28 18 3 -1 9 5 12 14 3 8 1 12 -4 9 -6 -3 -7 1 -3 10 5 15 9 13 30 -8 l25 -24 -50 -50z m826 70 c41 -41 30 -53 -48 -53 -57 0 -70 3 -70 16 0 18 25 46 34 37 3 -4 6 1 6 11 0 24 48 18 78 -11z m-723 -54 c-9 -27 -15 -52 -12 -55 2 -2 26 5 52 16 44 19 48 19 60 3 10 -14 7 -28 -19 -83 -38 -80 -47 -68 -11 14 14 32 23 61 21 64 -3 3 -31 -5 -62 -17 -31 -12 -58 -20 -60 -18 -3 3 22 109 33 137 4 11 7 12 10 3 3 -7 -3 -36 -12 -64z m255 49 c-14 -11 -24 -25 -22 -30 6 -20 -19 -75 -43 -98 -40 -38 -41 -14 -1 36 20 26 36 52 36 58 -1 12 -35 -24 -61 -64 -9 -14 -20 -20 -27 -16 -23 14 97 137 133 136 5 -1 -1 -10 -15 -22z m853 11 c12 -6 54 -45 94 -86 l71 -76 58 5 c49 4 55 3 39 -9 -22 -16 -78 -17 -108 -2 -12 6 -48 38 -79 72 -32 34 -58 57 -58 51 0 -7 21 -35 46 -63 33 -36 41 -51 29 -51 -20 0 -74 55 -77 79 -1 9 -2 24 -2 34 -1 10 -13 27 -26 38 -28 21 -21 25 13 8z m-1423 -15 c27 -17 60 -62 60 -84 0 -6 -11 2 -25 19 -14 16 -45 37 -69 46 -39 15 -49 15 -100 2 -62 -16 -62 -4 0 18 53 19 100 18 134 -1z m2531 -11 c19 -50 12 -129 -15 -188 -29 -65 -44 -74 -18 -12 12 29 17 70 17 134 0 51 1 93 3 93 1 0 7 -12 13 -27z m-2245 -48 c-8 -31 -17 -59 -19 -62 -8 -7 5 78 15 106 16 44 19 14 4 -44z m75 40 c5 4 9 1 9 -5 0 -7 -7 -10 -15 -6 -9 3 -15 0 -15 -10 0 -10 7 -13 25 -8 37 9 30 -3 -15 -26 -22 -11 -40 -19 -40 -17 0 2 8 26 17 53 10 30 19 42 21 31 2 -9 8 -15 13 -12z m389 -22 c0 -19 -3 -24 -10 -17 -6 6 -8 18 -4 27 9 24 14 21 14 -10z m500 2 c0 -8 -4 -17 -10 -20 -6 -4 -10 5 -10 20 0 15 4 24 10 20 6 -3 10 -12 10 -20z m-1473 9 c-3 -3 -12 -4 -19 -1 -8 3 -5 6 6 6 11 1 17 -2 13 -5z m229 -38 c42 -42 45 -65 3 -25 -34 32 -81 44 -140 36 -21 -3 -39 -3 -39 -1 0 11 49 23 94 23 42 1 52 -3 82 -33z m899 24 c9 -14 158 -13 172 1 16 16 42 4 53 -25 6 -17 15 -24 29 -21 13 2 23 -5 30 -24 14 -32 11 -93 -4 -103 -6 -5 -2 -8 9 -8 20 0 20 0 0 -16 -18 -14 -18 -15 6 -9 21 5 22 4 7 -5 -9 -6 -15 -15 -12 -21 4 -5 2 -9 -3 -9 -5 0 -15 -11 -22 -25 -7 -13 -17 -22 -22 -19 -4 3 -8 0 -8 -6 0 -7 -7 -10 -14 -7 -10 4 -13 1 -10 -8 4 -9 15 -12 32 -9 32 6 89 -23 111 -55 l15 -23 -39 21 c-50 26 -110 27 -152 1 -42 -25 -42 -16 -1 22 30 28 31 31 14 43 -17 13 -16 16 18 45 37 33 61 93 50 126 -13 41 -57 124 -66 124 -5 0 -11 -7 -14 -15 -4 -10 -13 -13 -25 -10 -15 5 -18 3 -12 -12 6 -17 5 -17 -16 1 -18 16 -21 17 -16 3 10 -24 42 -31 61 -13 22 22 31 20 48 -11 35 -70 28 -139 -19 -183 -21 -20 -28 -22 -50 -12 -34 16 -100 15 -125 0 -24 -15 -44 -5 -74 36 -26 34 -27 107 -2 154 19 36 28 39 50 16 19 -18 51 -11 61 13 5 14 2 13 -16 -3 -21 -18 -22 -18 -16 0 6 14 4 17 -9 12 -10 -4 -22 1 -30 11 -13 17 -15 17 -29 -1 -11 -15 -15 -16 -15 -5 0 30 41 52 55 29z m854 -28 c0 -24 -1 -25 -9 -7 -12 28 -12 47 0 40 6 -3 10 -18 9 -33z m-1502 -4 c-3 -7 -5 -2 -5 12 0 14 2 19 5 13 2 -7 2 -19 0 -25z m2243 -78 c-7 -30 -28 -89 -46 -131 -19 -42 -39 -100 -45 -128 -14 -68 -23 -65 -17 7 4 39 19 85 46 142 23 47 47 117 54 155 10 52 14 62 16 40 2 -16 -2 -55 -8 -85z m-2820 62 c-13 -17 -20 -37 -17 -46 9 -22 86 -59 130 -61 45 -3 115 -48 134 -85 6 -14 19 -47 29 -74 9 -26 31 -65 48 -85 17 -20 24 -30 14 -23 -10 8 -17 9 -20 3 -2 -7 -15 -8 -39 -1 -32 9 -36 13 -31 36 l5 25 30 -28 30 -28 -26 40 c-15 22 -33 60 -42 85 -19 53 -47 85 -98 112 -50 25 -59 17 -13 -11 41 -26 91 -81 101 -111 12 -37 0 -32 -32 14 -27 38 -123 110 -212 158 -39 21 -41 52 -4 90 34 35 42 29 13 -10z m83 12 c-18 -14 -33 -32 -33 -39 0 -8 19 -26 43 -40 l42 -26 -35 7 c-93 18 -120 66 -57 104 17 11 41 20 52 20 17 0 15 -4 -12 -26z m2157 -32 c58 -59 102 -147 114 -228 l7 -39 -21 49 c-28 67 -73 131 -138 198 -50 51 -60 78 -29 78 6 0 36 -26 67 -58z m-1680 43 c0 -3 -2 -5 -5 -5 -3 0 -5 2 -5 5 0 3 2 5 5 5 3 0 5 -2 5 -5z m-245 -36 c44 -39 40 -47 -8 -19 -20 12 -61 24 -91 27 -74 8 -72 23 4 23 52 0 64 -4 95 -31z m-210 -13 c0 -29 -2 -33 -17 -25 -21 11 -23 30 -6 47 19 19 23 15 23 -22z m56 8 c40 -44 136 -101 191 -115 46 -10 68 -26 163 -113 60 -56 129 -117 153 -135 50 -40 52 -51 13 -51 -17 0 -32 -4 -35 -9 -4 -5 -25 -12 -49 -16 -23 -4 -63 -16 -89 -27 -51 -22 -109 -20 -193 7 -38 11 -35 12 41 7 56 -3 104 0 150 11 38 9 83 18 99 19 23 2 14 7 -40 20 -38 9 -91 20 -116 24 -93 12 -142 65 -178 190 -23 77 -30 86 -99 124 -51 28 -68 50 -59 74 9 22 20 20 48 -10z m876 4 c-3 -8 -6 -5 -6 6 -1 11 2 17 5 13 3 -3 4 -12 1 -19z m103 9 c0 7 7 10 15 7 11 -5 12 -10 4 -26 -39 -72 -29 -139 28 -188 28 -25 33 -34 22 -41 -19 -12 -32 -11 -24 1 3 6 -1 7 -9 4 -9 -3 -16 -1 -16 4 0 6 -9 14 -20 17 -11 3 -20 13 -20 21 0 8 -5 14 -12 14 -6 0 -8 3 -5 7 4 3 2 12 -5 20 -9 11 -7 12 8 7 18 -5 18 -5 0 10 -11 9 -15 16 -9 16 6 0 8 17 6 41 -5 48 15 108 28 87 6 -9 9 -10 9 -1z m460 3 c0 -5 -4 -10 -10 -10 -5 0 -10 5 -10 10 0 6 5 10 10 10 6 0 10 -4 10 -10z m-1038 -28 c10 -16 38 -56 62 -90 43 -57 47 -61 71 -52 48 18 58 9 29 -26 -13 -16 -15 -16 -10 -1 4 12 0 17 -14 17 -11 0 -20 -4 -20 -8 0 -4 29 -39 64 -78 l64 -70 -30 -39 c-26 -34 -30 -36 -25 -15 6 24 5 24 -8 6 -17 -23 -20 -5 -4 27 9 19 8 19 -12 -3 l-22 -25 7 30 7 30 -22 -25 c-11 -14 -19 -18 -16 -10 2 8 8 26 12 40 l8 25 -21 -25 c-24 -28 -27 -24 -12 17 l10 28 -20 -25 c-22 -28 -25 -24 -10 17 l10 28 -19 -22 c-27 -33 -34 -28 -15 10 l17 32 -28 -25 -28 -25 23 40 23 40 -33 -30 -33 -30 23 40 23 40 -31 -29 c-37 -34 -41 -27 -11 16 12 16 19 31 16 34 -2 2 -12 -7 -21 -21 -9 -14 -21 -25 -27 -25 -6 0 -1 14 11 30 26 36 16 40 -12 4 -32 -40 -34 -19 -3 28 l28 43 -37 -34 c-20 -19 -36 -30 -36 -24 0 7 4 15 10 18 5 3 15 16 21 28 10 18 6 17 -22 -8 -29 -27 -31 -27 -16 -5 37 55 38 63 3 31 -19 -19 -38 -33 -40 -30 -5 5 85 129 94 129 3 0 13 -13 22 -28z m127 -44 c-30 -72 -36 -77 -44 -35 -5 23 -11 34 -20 31 -11 -4 -31 24 -23 32 10 10 104 39 106 33 2 -4 -7 -31 -19 -61z m1510 3 c36 -37 74 -83 85 -102 14 -26 2 -17 -52 38 -39 39 -84 79 -101 88 -31 15 -37 26 -24 38 14 14 28 5 92 -62z m-1937 43 c42 -14 95 -54 71 -54 -25 0 -103 33 -119 51 -21 23 -12 24 48 3z m504 -31 c-3 -4 -6 0 -6 8 0 11 -2 11 -10 -1 -16 -24 -12 -31 15 -24 14 3 25 3 25 0 0 -9 -71 -39 -77 -33 -2 3 5 24 17 48 19 37 24 40 32 25 5 -10 7 -20 4 -23z m859 27 c3 -5 1 -10 -4 -10 -6 0 -11 5 -11 10 0 6 2 10 4 10 3 0 8 -4 11 -10z m1125 -21 c-14 -10 -50 -28 -80 -40 -65 -24 -84 -39 -122 -98 -30 -48 -38 -40 -12 12 27 53 65 86 118 102 28 8 64 24 81 34 36 25 49 17 15 -10z m-1740 17 c0 -3 -4 -8 -10 -11 -5 -3 -10 -1 -10 4 0 6 5 11 10 11 6 0 10 -2 10 -4z m598 -31 c-2 -1 -14 -8 -28 -15 -25 -13 -25 -13 -6 8 10 12 23 19 28 16 5 -3 8 -7 6 -9z m-635 -38 c-30 -33 -41 -56 -16 -34 11 9 22 17 25 17 12 0 16 -27 6 -41 -8 -11 -8 -9 -4 6 9 31 -37 -29 -65 -83 -29 -59 -36 -41 -9 22 11 26 20 56 20 66 0 19 50 83 59 75 2 -3 -5 -15 -16 -28z m674 17 c4 -12 -49 -44 -71 -44 -11 0 -6 9 16 30 32 29 49 33 55 14z m-1497 -9 c0 -3 -2 -5 -5 -5 -3 0 -5 2 -5 5 0 3 2 5 5 5 3 0 5 -2 5 -5z m650 -4 c0 -8 -77 -32 -97 -30 -6 0 64 29 95 38 1 1 2 -3 2 -8z m217 -7 c-3 -3 -12 -4 -19 -1 -8 3 -5 6 6 6 11 1 17 -2 13 -5z m1668 -7 c-45 -27 -115 -109 -156 -183 -37 -65 -49 -80 -72 -82 -19 -2 -34 5 -52 24 -32 35 -25 42 13 14 17 -13 37 -20 45 -17 9 3 31 37 51 74 57 109 130 184 176 182 11 0 9 -4 -5 -12z m85 -11 c0 -6 -12 -29 -27 -51 l-28 -40 -3 28 c-4 29 -20 34 -55 16 -21 -11 -21 -11 2 14 43 47 111 67 111 33z m-2987 -25 c20 -44 79 -106 129 -133 l33 -19 -49 6 c-95 13 -115 34 -135 141 -10 54 0 57 22 5z m1034 -1 c8 -21 7 -27 -4 -27 -8 0 -12 6 -9 14 8 20 -2 15 -14 -7 -6 -11 -7 -20 -3 -19 4 1 19 1 33 0 20 -1 22 -3 10 -11 -12 -8 -12 -10 5 -10 17 0 17 -2 5 -10 -12 -8 -12 -10 5 -10 16 -1 17 -2 5 -9 -23 -13 -99 -20 -106 -10 -3 5 10 9 28 10 27 0 30 2 13 9 -18 8 -18 9 5 10 23 1 23 2 5 10 -14 5 -24 3 -32 -8 -16 -19 -17 -8 -2 21 10 21 10 21 -5 3 -9 -11 -16 -23 -16 -28 0 -4 -5 -8 -10 -8 -6 0 -1 18 10 40 11 21 20 41 20 44 0 2 -15 0 -32 -5 -38 -10 -64 -12 -55 -3 6 7 103 31 123 31 6 0 15 -12 21 -27z m73 16 c0 -7 -5 -28 -12 -46 l-11 -33 -19 38 c-16 31 -17 39 -6 46 20 13 48 11 48 -5z m167 8 c-3 -3 -12 -4 -19 -1 -8 3 -5 6 6 6 11 1 17 -2 13 -5z m1001 -13 c63 -32 118 -100 132 -163 17 -76 7 -96 -13 -27 -20 66 -61 126 -114 165 -69 51 -71 59 -5 25z m-1018 -21 c12 -8 9 -10 -13 -10 -16 0 -26 4 -22 10 8 12 16 12 35 0z m-67 -40 c-3 -11 -9 -23 -14 -26 -5 -3 -9 -14 -9 -25 0 -10 -4 -19 -10 -19 -15 0 -12 25 8 59 19 35 33 41 25 11z m60 0 c7 -1 1 -7 -13 -15 -19 -11 -21 -14 -7 -15 23 0 22 -12 -3 -27 -25 -16 -34 -2 -25 38 5 21 11 29 22 25 8 -3 20 -6 26 -6z m1380 -67 c29 -33 40 -29 69 23 24 44 25 45 30 20 3 -15 3 -24 0 -21 -3 3 -13 -14 -22 -37 -13 -37 -19 -43 -45 -43 -24 0 -33 7 -51 40 -12 22 -24 54 -28 70 l-6 30 16 -30 c9 -16 26 -40 37 -52z m-1074 40 c8 -14 10 -14 11 -3 0 9 3 11 10 4 6 -6 6 -23 -1 -48 -6 -21 -8 -47 -6 -57 9 -34 -16 -48 -74 -40 -3 1 -6 15 -7 31 0 17 -6 47 -12 66 -9 26 -9 39 -1 47 8 8 11 7 11 -3 1 -11 3 -11 11 3 5 9 19 17 29 17 10 0 24 -8 29 -17z m-1114 -70 c29 -60 -9 -69 -70 -18 -26 23 -27 25 -7 20 29 -8 39 16 22 53 l-12 27 26 -24 c13 -13 32 -39 41 -58z m1887 50 c36 -39 46 -61 57 -133 12 -76 45 -129 106 -172 25 -18 43 -34 40 -36 -11 -11 -59 12 -96 45 -50 46 -74 93 -82 161 -4 30 -19 77 -36 108 -32 59 -28 69 11 27z m347 5 c8 3 12 -1 9 -9 -7 -23 -45 -23 -58 0 -10 19 -8 20 12 12 13 -4 29 -6 37 -3z m-1619 -26 c0 -5 -7 -17 -16 -28 -15 -19 -15 -18 -11 4 3 14 0 22 -9 22 -9 0 -11 -6 -7 -17 6 -17 6 -17 -10 -1 -24 24 -21 28 18 28 19 0 35 -4 35 -8z m30 -5 c0 -8 -9 -22 -20 -32 -23 -21 -25 -16 -8 20 12 27 28 34 28 12z m335 -13 c14 -9 30 -25 36 -36 9 -17 8 -17 -23 2 -39 24 -101 26 -142 5 -33 -17 -47 -12 -25 10 46 46 103 53 154 19z m-1031 -55 c45 -22 113 -46 151 -53 l70 -14 -50 -1 c-50 0 -122 21 -240 72 -33 15 -75 27 -93 27 -21 0 -31 4 -27 11 12 19 104 -2 189 -42z m1016 10 c14 -25 3 -41 -11 -16 -13 22 -55 22 -68 0 -5 -10 -13 -15 -17 -10 -4 4 1 16 11 27 24 27 71 26 85 -1z m325 1 c10 -11 15 -23 11 -27 -4 -5 -12 0 -17 10 -12 21 -57 23 -65 2 -7 -16 -24 -21 -24 -6 0 18 31 41 54 41 13 0 31 -9 41 -20z m-621 -5 c13 -10 43 -15 83 -15 49 0 76 -6 115 -26 48 -24 50 -27 34 -40 -16 -11 -24 -11 -51 1 -22 9 -54 11 -93 8 -52 -5 -66 -2 -111 22 -49 27 -50 29 -35 47 20 22 33 22 58 3z m271 -15 c4 -6 -5 -10 -20 -10 -15 0 -24 4 -20 10 3 6 12 10 20 10 8 0 17 -4 20 -10z m330 0 c4 -6 -5 -10 -20 -10 -15 0 -24 4 -20 10 3 6 12 10 20 10 8 0 17 -4 20 -10z m87 -32 c-6 -6 -8 -16 -4 -22 5 -6 -2 -22 -16 -36 -14 -14 -22 -18 -18 -10 6 13 6 13 -6 0 -8 -10 -29 -15 -58 -15 -25 1 -51 -3 -58 -8 -9 -7 -11 -5 -6 9 4 10 4 16 0 12 -12 -10 -51 34 -51 58 l-1 21 45 -20 c52 -23 111 -19 150 11 27 20 43 20 23 0z m-717 -12 c22 -13 64 -36 92 -51 29 -14 62 -38 73 -52 16 -20 23 -23 34 -14 11 9 43 9 126 2 61 -5 114 -11 116 -14 10 -10 -230 -20 -309 -13 -87 7 -99 12 -169 65 -53 39 -55 46 -32 79 19 27 20 27 69 -2z m390 -2 c0 -14 -8 -30 -17 -35 -18 -10 -88 -2 -88 10 0 3 24 16 53 27 28 12 52 22 52 23 1 0 1 -11 0 -25z m-1010 -9 c53 -16 175 -22 197 -9 10 5 10 4 2 -5 -17 -19 -91 -32 -132 -25 -41 8 -122 40 -122 49 0 7 -3 7 55 -10z m1092 -33 c-7 -9 -6 -11 8 -6 13 5 16 4 11 -4 -10 -17 -49 -15 -72 4 -13 11 -15 17 -6 20 6 3 10 10 6 15 -8 13 10 11 25 -3 10 -11 11 -9 5 7 l-7 20 20 -20 c15 -14 18 -24 10 -33z m903 36 c0 -17 47 -74 85 -104 20 -15 63 -37 98 -50 52 -19 57 -23 31 -23 -73 -2 -178 50 -205 102 -17 31 -28 87 -18 87 5 0 9 -5 9 -12z m474 -45 c-9 -64 -27 -98 -61 -112 -31 -12 -126 -31 -131 -26 -2 2 18 15 45 28 52 27 126 100 138 136 11 37 17 23 9 -26z m-1658 26 c3 -6 -2 -20 -13 -31 -20 -19 -20 -19 -59 4 l-39 23 35 6 c56 10 68 10 76 -2z m44 -21 c0 -14 -40 -58 -52 -58 -13 0 -9 18 8 45 17 26 44 34 44 13z m115 -14 c38 -12 37 -12 -30 -7 -77 6 -80 7 -70 22 6 11 28 8 100 -15z m365 21 c0 -3 -2 -5 -5 -5 -3 0 -5 2 -5 5 0 3 2 5 5 5 3 0 5 -2 5 -5z m-802 -20 c14 -14 -10 -14 -39 0 l-34 15 34 -5 c19 -3 37 -7 39 -10z m612 10 c0 -3 -2 -5 -5 -5 -3 0 -5 2 -5 5 0 3 2 5 5 5 3 0 5 -2 5 -5z m811 -122 c13 -12 38 -27 54 -34 28 -12 29 -13 7 -17 -71 -12 -132 48 -131 128 l0 45 23 -50 c13 -27 34 -60 47 -72z m-795 85 c4 -14 9 -16 25 -8 15 8 19 7 19 -5 0 -19 27 -20 32 -1 2 12 5 12 16 0 10 -11 8 -15 -10 -25 -31 -17 -148 -25 -148 -10 0 6 20 12 48 12 27 1 36 4 21 6 -18 3 -28 12 -31 27 -6 28 19 31 28 4z m-87 -4 c28 -4 40 -9 34 -15 -6 -6 -49 -6 -119 1 -60 5 -117 10 -127 10 -10 0 -15 5 -12 10 6 10 120 6 224 -6z m148 -11 c-4 -3 -7 0 -7 7 0 7 3 10 7 7 3 -4 3 -10 0 -14z m-642 -13 c-21 -34 -162 -80 -240 -79 -47 1 -46 2 30 15 44 8 107 28 140 43 66 32 79 36 70 21z m15 -25 c-18 -22 -58 -41 -100 -49 -28 -5 -23 -1 26 23 34 15 65 34 69 40 4 7 9 10 12 7 3 -3 0 -13 -7 -21z m580 -23 c0 -4 -10 -8 -22 -9 -110 -11 -137 -11 -153 1 -15 10 -2 13 79 14 53 0 96 -3 96 -6z m-188 -22 c14 0 18 -5 14 -16 -3 -8 -2 -12 4 -9 6 3 10 -5 10 -18 0 -14 6 -27 13 -29 10 -4 55 -3 80 1 4 0 7 13 7 27 0 14 4 22 10 19 5 -3 7 0 4 8 -4 11 7 16 41 22 26 3 49 4 52 1 3 -3 -13 -8 -36 -12 -33 -5 -41 -11 -41 -28 0 -41 -16 -51 -80 -51 -65 0 -80 10 -80 53 0 15 -6 22 -19 22 -11 0 -28 3 -38 7 -16 6 -15 8 7 13 14 4 27 3 28 -2 2 -4 13 -8 24 -8z m52 -25 c-5 -11 2 -15 26 -15 26 0 31 3 25 18 -5 13 -3 14 6 5 19 -19 3 -43 -30 -43 -16 0 -33 5 -36 10 -7 11 0 40 9 40 3 0 3 -7 0 -15z m-140 -34 c3 -5 -1 -12 -10 -15 -20 -8 -29 -1 -19 13 8 13 22 14 29 2z m-39 -51 c-10 -11 -23 -20 -28 -20 -6 0 -2 9 8 20 10 11 23 20 28 20 6 0 2 -9 -8 -20z m141 -1 c3 -6 2 -15 -2 -19 -12 -12 -38 5 -30 19 9 14 23 14 32 0z m80 0 c10 -17 -13 -36 -27 -22 -12 12 -4 33 11 33 5 0 12 -5 16 -11z m80 0 c10 -17 -13 -36 -27 -22 -12 12 -4 33 11 33 5 0 12 -5 16 -11z m-231 -75 c-19 -45 -19 -44 3 -43 10 0 12 3 4 6 -18 7 -4 23 16 17 13 -5 14 -4 3 4 -10 7 -11 14 -2 31 7 11 17 21 24 21 8 0 7 -4 -3 -11 -11 -7 -6 -9 20 -6 19 2 27 2 18 0 -11 -3 -15 -10 -11 -21 6 -15 5 -15 -10 -4 -9 8 -22 12 -29 9 -8 -4 -7 -6 4 -6 15 -1 16 -4 5 -28 -6 -16 -16 -31 -22 -35 -5 -4 0 -8 13 -8 12 0 22 -4 22 -10 0 -5 -13 -7 -32 -3 -22 4 -29 3 -24 -5 11 -18 -19 -15 -34 3 -11 13 -10 14 5 9 13 -5 16 -4 11 4 -4 7 -2 12 4 12 6 0 8 5 5 10 -5 8 -11 7 -20 0 -9 -7 -7 4 6 29 10 22 19 45 19 51 0 5 5 10 10 10 6 0 4 -15 -5 -36z m225 31 c0 -3 -2 -5 -5 -5 -3 0 -5 2 -5 5 0 3 2 5 5 5 3 0 5 -2 5 -5z m63 -40 c9 -25 13 -44 9 -41 -5 3 -14 1 -22 -5 -12 -7 -12 -9 3 -9 12 0 16 -4 11 -12 -5 -8 0 -7 11 2 15 13 17 13 14 1 -8 -24 -38 -38 -48 -22 -6 8 -16 11 -31 6 -15 -5 -20 -4 -16 4 4 6 15 11 24 11 10 0 13 3 7 8 -6 4 -16 19 -22 35 -11 24 -10 27 5 28 11 0 12 2 4 6 -7 3 -20 -1 -29 -9 -15 -11 -16 -11 -10 4 4 12 0 18 -16 21 -12 2 -3 4 20 3 44 -1 65 -21 41 -39 -9 -6 -8 -7 4 -3 10 3 22 -2 27 -12 15 -25 13 -9 -4 32 -8 20 -12 36 -7 36 4 0 15 -20 25 -45z m-233 -40 c0 -3 -2 -5 -5 -5 -3 0 -5 2 -5 5 0 3 2 5 5 5 3 0 5 -2 5 -5z m170 -10 c0 -3 -2 -5 -5 -5 -3 0 -5 2 -5 5 0 3 2 5 5 5 3 0 5 -2 5 -5z m-155 -57 c6 -6 0 -8 -19 -6 -16 2 -31 9 -34 17 -3 10 2 11 19 6 13 -4 29 -12 34 -17z m185 12 c0 -14 -24 -23 -47 -17 -15 3 -14 6 7 15 32 14 40 14 40 2z m-300 -165 c0 -9 -7 -18 -16 -22 -18 -7 -39 11 -30 26 11 17 46 13 46 -4z m-11 -41 c7 -6 -21 -34 -35 -34 -17 0 -27 17 -20 36 4 11 13 13 28 8 13 -3 25 -8 27 -10z m-402 -166 c-2 -13 -4 -5 -4 17 -1 22 1 32 4 23 2 -10 2 -28 0 -40z m-208 -265 c0 -35 -1 -36 -10 -14 -5 14 -7 31 -5 38 10 24 16 13 15 -24z"/>
 <path d="M1810 5066 c0 -2 8 -10 18 -17 15 -13 16 -12 3 4 -13 16 -21 21 -21 13z"/>
 <path d="M3488 3673 c7 -3 16 -2 19 1 4 3 -2 6 -13 5 -11 0 -14 -3 -6 -6z"/>
 <path d="M3528 3643 c18 -2 45 -2 60 0 15 2 0 4 -33 4 -33 0 -45 -2 -27 -4z"/>
 <path d="M3448 3613 c7 -3 16 -2 19 1 4 3 -2 6 -13 5 -11 0 -14 -3 -6 -6z"/>
 <path d="M3488 3603 c6 -2 18 -2 25 0 6 3 1 5 -13 5 -14 0 -19 -2 -12 -5z"/>
 <path d="M2247 3490 c29 -30 54 -52 56 -50 3 3 -21 27 -52 54 l-56 49 52 -53z"/>
 <path d="M952 3503 c-14 -3 -22 -11 -20 -19 5 -23 19 -21 36 4 8 12 13 21 11 21 -2 -1 -14 -4 -27 -6z"/>
 <path d="M997 3473 c-4 -3 -7 -16 -7 -27 0 -12 3 -16 8 -10 4 6 13 13 21 15 11 4 11 7 -1 17 -8 6 -18 9 -21 5z"/>
 <path d="M962 3415 c6 -14 13 -23 16 -21 7 7 -9 46 -18 46 -5 0 -4 -11 2 -25z"/>
 <path d="M1000 3415 c0 -3 2 -5 5 -5 3 0 5 2 5 5 0 3 -2 5 -5 5 -3 0 -5 -2 -5 -5z"/>
 <path d="M1710 3505 c0 -3 2 -5 5 -5 3 0 5 2 5 5 0 3 -2 5 -5 5 -3 0 -5 -2 -5 -5z"/>
 <path d="M2920 3535 c0 -3 2 -5 5 -5 3 0 5 2 5 5 0 3 -2 5 -5 5 -3 0 -5 -2 -5 -5z"/>
 <path d="M2570 2965 c0 -3 2 -5 5 -5 3 0 5 2 5 5 0 3 -2 5 -5 5 -3 0 -5 -2 -5 -5z"/>
 <path d="M1186 3251 c-8 -13 4 -42 15 -35 5 3 14 14 19 25 9 16 7 19 -9 19 -11 0 -22 -4 -25 -9z"/>
 <path d="M1247 3224 c-4 -4 -7 -14 -7 -23 0 -13 2 -13 9 -3 4 8 11 13 15 13 3 -1 6 2 7 6 1 10 -16 15 -24 7z"/>
 <path d="M1354 3222 c4 -7 2 -12 -3 -12 -6 0 -11 -4 -11 -10 0 -5 7 -10 15 -10 18 0 20 26 3 36 -7 4 -8 3 -4 -4z"/>
 <path d="M1210 3185 c0 -15 18 -40 24 -34 3 3 -1 14 -9 25 -8 10 -14 15 -15 9z"/>
 <path d="M1250 3170 c0 -7 3 -10 7 -7 3 4 3 10 0 14 -4 3 -7 0 -7 -7z"/>
 <path d="M996 3051 c-5 -8 -51 -20 -103 -26 -44 -6 -57 -31 -28 -55 12 -10 18 -10 33 1 15 13 16 12 3 -3 -12 -16 -10 -20 10 -38 41 -34 68 -23 41 17 -15 24 -15 26 7 44 18 15 27 17 37 8 16 -13 19 -39 4 -39 -5 0 -7 7 -4 15 4 10 0 15 -16 15 -31 0 -25 -54 7 -58 27 -4 58 48 49 84 -6 21 -3 24 21 25 l28 1 -25 8 c-35 11 -58 12 -64 1z"/>
 <path d="M2820 3295 c0 -3 2 -5 5 -5 3 0 5 2 5 5 0 3 -2 5 -5 5 -3 0 -5 -2 -5 -5z"/>
 <path d="M2830 3275 c0 -3 2 -5 5 -5 3 0 5 2 5 5 0 3 -2 5 -5 5 -3 0 -5 -2 -5 -5z"/>
 <path d="M2790 3250 c0 -5 5 -10 11 -10 5 0 7 5 4 10 -3 6 -8 10 -11 10 -2 0 -4 -4 -4 -10z"/>
 <path d="M2846 3246 c6 -15 4 -17 -6 -11 -8 5 -11 4 -6 -3 4 -6 -5 -12 -21 -15 -27 -4 -27 -4 3 -6 34 -1 54 24 34 43 -8 8 -9 6 -4 -8z"/>
 <path d="M2860 3215 c0 -3 2 -5 5 -5 3 0 5 2 5 5 0 3 -2 5 -5 5 -3 0 -5 -2 -5 -5z"/>
 <path d="M1960 3125 c0 -3 2 -5 5 -5 3 0 5 2 5 5 0 3 -2 5 -5 5 -3 0 -5 -2 -5 -5z"/>
 <path d="M2210 3035 c0 -3 2 -5 5 -5 3 0 5 2 5 5 0 3 -2 5 -5 5 -3 0 -5 -2 -5 -5z"/>
 <path d="M2120 3018 c12 -4 36 -4 53 0 28 8 26 9 -21 9 -40 -1 -48 -3 -32 -9z"/>
 <path d="M1903 1953 c4 -3 10 -3 14 0 3 4 0 7 -7 7 -7 0 -10 -3 -7 -7z"/>
 <path d="M1235 1895 c-35 -16 -28 -19 11 -5 28 11 28 11 10 -45 -4 -11 2 -4 13 15 11 19 20 38 21 43 0 11 -21 8 -55 -8z"/>
 <path d="M1380 1795 c0 -3 2 -5 5 -5 3 0 5 2 5 5 0 3 -2 5 -5 5 -3 0 -5 -2 -5 -5z"/>
 <path d="M1370 1775 c0 -3 2 -5 5 -5 3 0 5 2 5 5 0 3 -2 5 -5 5 -3 0 -5 -2 -5 -5z"/>
 <path d="M1880 1505 c0 -3 2 -5 5 -5 3 0 5 2 5 5 0 3 -2 5 -5 5 -3 0 -5 -2 -5 -5z"/>
 <path d="M1990 1455 c0 -3 2 -5 5 -5 3 0 5 2 5 5 0 3 -2 5 -5 5 -3 0 -5 -2 -5 -5z"/>
 <path d="M2030 1135 c0 -3 2 -5 5 -5 3 0 5 2 5 5 0 3 -2 5 -5 5 -3 0 -5 -2 -5 -5z"/>
 <path d="M3385 3446 c-11 -8 -29 -16 -41 -16 -11 0 -24 -3 -27 -6 -4 -4 -28 -9 -54 -11 -52 -4 -73 -17 -73 -42 0 -39 51 -56 69 -23 10 16 10 16 11 -1 0 -10 -7 -20 -15 -23 -20 -8 36 -64 64 -64 26 0 34 15 16 30 -22 18 -19 66 6 83 23 17 55 12 63 -9 7 -18 -3 -44 -17 -44 -8 0 -8 3 0 11 6 6 9 18 6 25 -11 28 -63 9 -63 -23 0 -7 9 -22 20 -33 26 -26 49 -15 79 36 21 35 21 74 0 74 -6 0 -7 5 -4 10 3 6 18 10 33 10 15 0 34 5 42 10 12 8 9 10 -11 10 -15 0 -39 3 -55 6 -18 3 -36 0 -49 -10z"/>
 <path d="M3071 3183 c0 -12 -4 -30 -7 -40 -5 -17 -5 -17 6 0 6 10 9 28 7 40 -4 22 -4 22 -6 0z"/>
 <path d="M3644 3040 c-6 -6 -37 -14 -70 -18 -52 -6 -59 -10 -62 -31 -4 -29 17 -44 37 -28 12 10 14 9 8 -7 -5 -13 0 -24 14 -37 12 -11 26 -19 30 -19 15 0 19 20 8 38 -24 38 18 80 49 48 12 -12 13 -19 5 -27 -8 -8 -11 -6 -10 7 2 24 -22 25 -37 2 -14 -22 12 -52 37 -42 23 9 50 65 37 78 -17 17 -11 26 14 26 14 0 27 3 29 8 8 11 -77 14 -89 2z"/>
 <path d="M3240 2982 c-29 -22 -63 -31 -137 -36 -29 -2 -60 -9 -68 -16 -21 -18 -15 -59 12 -77 19 -13 23 -12 42 8 16 18 21 19 21 7 0 -9 -7 -21 -15 -28 -13 -11 -10 -17 21 -47 20 -19 44 -33 53 -31 10 2 19 -7 26 -26 6 -17 23 -37 38 -46 27 -15 29 -14 58 18 21 24 29 28 29 15 0 -9 -10 -27 -22 -40 l-22 -23 47 -45 c50 -48 79 -55 113 -30 19 15 19 15 -3 32 -32 25 -46 73 -33 107 11 29 61 56 91 49 51 -14 66 -85 19 -91 -23 -3 -24 -3 -6 10 27 21 17 52 -17 56 -62 7 -90 -66 -42 -113 13 -14 33 -25 43 -25 26 0 69 35 78 63 4 12 15 33 25 46 26 32 24 57 -6 87 -14 14 -25 26 -25 28 0 2 25 6 56 8 36 3 62 11 74 24 19 19 19 19 -33 20 -29 1 -71 2 -94 4 -30 2 -50 -4 -71 -19 -17 -11 -38 -21 -47 -21 -9 0 -26 -5 -38 -12 -12 -6 -38 -12 -57 -13 -19 -1 -42 -3 -50 -6 -19 -5 -15 29 7 53 16 18 11 68 -7 68 -6 0 -10 5 -10 10 0 6 15 10 33 10 18 0 42 6 52 14 17 12 16 13 -11 13 -16 0 -45 4 -64 8 -27 5 -41 2 -60 -13z m20 -87 c15 -18 10 -47 -10 -53 -13 -4 -13 -3 -2 11 17 21 7 37 -22 37 -36 0 -52 -25 -39 -61 14 -35 1 -39 -15 -4 -13 28 -2 69 20 78 25 10 56 7 68 -8z"/>
 <path d="M464 2796 c-32 -22 -97 -37 -156 -36 -32 0 -58 -24 -58 -54 0 -47 48 -62 74 -24 13 18 16 19 16 6 0 -9 -7 -24 -15 -32 -14 -14 -13 -18 17 -45 18 -17 41 -31 51 -31 13 0 16 -5 11 -24 -19 -78 73 -118 110 -48 15 26 15 26 16 4 0 -13 -12 -34 -26 -47 l-26 -24 26 -12 c14 -7 26 -15 26 -19 0 -3 9 -16 20 -28 24 -26 81 -30 100 -7 10 13 8 19 -13 35 -74 58 -16 175 72 144 35 -13 51 -58 28 -81 -13 -13 -19 -14 -29 -5 -9 9 -8 12 5 12 27 0 21 39 -8 52 -61 28 -103 -62 -52 -110 43 -40 95 -25 121 35 10 21 24 50 32 65 16 30 5 74 -21 84 -26 10 -5 24 36 24 34 0 99 22 99 34 0 2 -19 3 -42 3 -24 0 -66 3 -93 7 -46 8 -54 6 -82 -18 -18 -16 -43 -26 -61 -26 -17 0 -34 -5 -37 -10 -4 -6 -21 -10 -38 -9 -18 1 -42 -1 -54 -5 -26 -8 -30 5 -8 24 8 7 15 18 15 25 0 7 7 18 15 25 19 16 19 49 0 70 -14 16 -13 18 22 23 21 4 46 12 56 19 14 11 6 13 -56 15 -48 2 -80 -2 -93 -11z m20 -82 c18 -17 21 -50 7 -59 -5 -3 -12 -1 -15 4 -4 5 0 11 6 14 23 8 -17 40 -40 33 -32 -11 -37 -44 -13 -77 23 -31 14 -40 -11 -11 -30 33 -31 60 -4 87 29 29 48 31 70 9z"/>
 <path d="M1770 985 c0 -3 2 -5 5 -5 3 0 5 2 5 5 0 3 -2 5 -5 5 -3 0 -5 -2 -5 -5z"/>
 <path d="M2030 975 c0 -3 2 -5 5 -5 3 0 5 2 5 5 0 3 -2 5 -5 5 -3 0 -5 -2 -5 -5z"/>
 <path d="M1760 940 c0 -7 3 -10 7 -7 3 4 3 10 0 14 -4 3 -7 0 -7 -7z"/>
 <path d="M2040 931 c0 -10 19 -25 25 -20 1 2 -3 10 -11 17 -8 7 -14 8 -14 3z"/>
 <path d="M2070 898 c0 -2 7 -26 16 -52 12 -34 19 -44 25 -35 5 8 9 10 9 5 0 -5 7 -3 15 4 12 10 18 10 30 0 20 -17 19 -7 -5 40 -22 42 -29 47 -48 28 -8 -8 -15 -8 -27 2 -8 7 -15 10 -15 8z m78 -41 c4 -22 -24 -33 -43 -17 -20 16 -19 28 3 33 26 7 37 2 40 -16z"/>
 <path d="M1616 784 c-9 -24 -7 -42 2 -26 12 19 64 -2 56 -22 -8 -21 -42 -30 -58 -17 -10 9 -15 8 -20 -5 -8 -22 -8 -23 12 -18 23 6 46 -11 37 -26 -4 -7 -19 -10 -36 -6 -22 4 -29 2 -29 -10 0 -8 4 -13 9 -10 5 4 17 3 26 0 14 -6 14 -8 0 -24 -8 -9 -12 -20 -8 -24 4 -4 -2 -9 -14 -12 -12 -3 -24 -15 -27 -27 -7 -29 1 -34 19 -11 18 22 99 188 110 222 6 21 5 22 -20 10 -23 -10 -29 -10 -40 5 -11 16 -13 16 -19 1z"/>
 <path d="M2175 788 c-8 -21 -35 -24 -53 -6 -14 14 -16 0 -4 -20 7 -10 15 -10 37 -2 22 8 30 8 37 -2 10 -16 9 1 -2 27 -7 18 -8 19 -15 3z"/>
 <path d="M2146 692 c9 -20 18 -43 21 -49 4 -9 10 -10 24 -2 11 5 24 7 29 4 6 -3 10 1 10 9 0 18 -11 21 -26 6 -7 -7 -17 -5 -30 5 -16 13 -17 16 -4 25 8 6 22 9 31 6 12 -2 15 2 12 15 -4 16 -8 17 -20 8 -10 -9 -20 -9 -38 -1 l-25 12 16 -38z"/>
 <path d="M1158 583 c-32 -52 -35 -62 -28 -103 l7 -45 2 58 c1 36 5 56 11 52 6 -3 10 1 10 10 0 9 5 13 10 10 6 -3 11 4 11 17 1 19 3 18 9 -7 7 -27 8 -25 9 18 0 26 -1 47 -3 47 -2 0 -19 -26 -38 -57z"/>
 <path d="M1210 625 c0 -3 2 -5 5 -5 3 0 5 2 5 5 0 3 -2 5 -5 5 -3 0 -5 -2 -5 -5z"/>
 <path d="M1570 609 c0 -5 5 -7 10 -4 6 3 10 8 10 11 0 2 -4 4 -10 4 -5 0 -10 -5 -10 -11z"/>
 <path d="M2195 592 c17 -32 40 -62 47 -62 15 0 -7 49 -24 53 -11 3 -17 10 -14 15 3 6 -1 13 -9 16 -14 5 -14 2 0 -22z"/>
 <path d="M2225 610 c3 -5 8 -10 11 -10 3 0 2 5 -1 10 -3 6 -8 10 -11 10 -3 0 -2 -4 1 -10z"/>
 <path d="M1210 605 c0 -3 2 -5 5 -5 3 0 5 2 5 5 0 3 -2 5 -5 5 -3 0 -5 -2 -5 -5z"/>
 </g>

</svg>
